<svg width="48" height="48" viewBox="0 0 48 48" fill="none" xmlns="http://www.w3.org/2000/svg">
<g opacity="0.5" filter="url(#filter0_d_326_4570)">
<path fill-rule="evenodd" clip-rule="evenodd" d="M12.6662 14.667C12.298 14.667 11.9995 14.9655 11.9995 15.3337V32.667C11.9995 33.0352 12.298 33.3337 12.6662 33.3337H35.3328C35.701 33.3337 35.9995 33.0352 35.9995 32.667V15.3337C35.9995 14.9655 35.701 14.667 35.3328 14.667H12.6662ZM16.6667 29.3333C16.2986 29.3333 16.0001 29.0349 16.0001 28.6667V19.3333C16.0001 18.9651 16.2986 18.6667 16.6667 18.6667H22.0001C22.3683 18.6667 22.6667 18.9651 22.6667 19.3333V20.6667C22.6667 21.0349 22.3683 21.3333 22.0001 21.3333H18.8001C18.7264 21.3333 18.6667 21.393 18.6667 21.4667V26.5333C18.6667 26.607 18.7264 26.6667 18.8001 26.6667H22.0001C22.3683 26.6667 22.6667 26.9651 22.6667 27.3333V28.6667C22.6667 29.0349 22.3683 29.3333 22.0001 29.3333H16.6667ZM26.0001 29.3333C25.6319 29.3333 25.3334 29.0349 25.3334 28.6667V19.3333C25.3334 18.9651 25.6319 18.6667 26.0001 18.6667H31.3334C31.7016 18.6667 32.0001 18.9651 32.0001 19.3333V20.6667C32.0001 21.0349 31.7016 21.3333 31.3334 21.3333H28.1334C28.0598 21.3333 28.0001 21.393 28.0001 21.4667V26.5333C28.0001 26.607 28.0598 26.6667 28.1334 26.6667H31.3334C31.7016 26.6667 32.0001 26.9651 32.0001 27.3333V28.6667C32.0001 29.0349 31.7016 29.3333 31.3334 29.3333H26.0001Z" fill="#F5F5F5"/>
</g>
<defs>
<filter id="filter0_d_326_4570" x="11.9995" y="14.667" width="26" height="20.6666" filterUnits="userSpaceOnUse" color-interpolation-filters="sRGB">
<feFlood flood-opacity="0" result="BackgroundImageFix"/>
<feColorMatrix in="SourceAlpha" type="matrix" values="0 0 0 0 0 0 0 0 0 0 0 0 0 0 0 0 0 0 127 0" result="hardAlpha"/>
<feOffset dx="1" dy="1"/>
<feGaussianBlur stdDeviation="0.5"/>
<feComposite in2="hardAlpha" operator="out"/>
<feColorMatrix type="matrix" values="0 0 0 0 0.0392157 0 0 0 0 0.0392157 0 0 0 0 0.0392157 0 0 0 0.04 0"/>
<feBlend mode="normal" in2="BackgroundImageFix" result="effect1_dropShadow_326_4570"/>
<feBlend mode="normal" in="SourceGraphic" in2="effect1_dropShadow_326_4570" result="shape"/>
</filter>
</defs>
</svg>
