<svg width="48" height="48" viewBox="0 0 48 48" fill="none" xmlns="http://www.w3.org/2000/svg">
<g filter="url(#filter0_d_326_4546)">
<path d="M16 36.0003C16 35.6321 16.2985 35.3336 16.6667 35.3336H31.3333C31.7015 35.3336 32 35.6321 32 36.0003V37.3336C32 37.7018 31.7015 38.0003 31.3333 38.0003H16.6667C16.2985 38.0003 16 37.7018 16 37.3336V36.0003Z" fill="#F5F5F5"/>
</g>
<path fill-rule="evenodd" clip-rule="evenodd" d="M12.6659 14.667C12.2977 14.667 11.9993 14.9655 11.9993 15.3337V32.667C11.9993 33.0352 12.2977 33.3337 12.6659 33.3337H35.3326C35.7008 33.3337 35.9993 33.0352 35.9993 32.667V15.3337C35.9993 14.9655 35.7008 14.667 35.3326 14.667H12.6659ZM16.6665 29.3333C16.2983 29.3333 15.9998 29.0349 15.9998 28.6667V19.3333C15.9998 18.9651 16.2983 18.6667 16.6665 18.6667H21.9998C22.368 18.6667 22.6665 18.9651 22.6665 19.3333V20.6667C22.6665 21.0349 22.368 21.3333 21.9998 21.3333H18.7998C18.7262 21.3333 18.6665 21.393 18.6665 21.4667V26.5333C18.6665 26.607 18.7262 26.6667 18.7998 26.6667H21.9998C22.368 26.6667 22.6665 26.9651 22.6665 27.3333V28.6667C22.6665 29.0349 22.368 29.3333 21.9998 29.3333H16.6665ZM25.9998 29.3333C25.6316 29.3333 25.3332 29.0349 25.3332 28.6667V19.3333C25.3332 18.9651 25.6316 18.6667 25.9998 18.6667H31.3332C31.7014 18.6667 31.9998 18.9651 31.9998 19.3333V20.6667C31.9998 21.0349 31.7014 21.3333 31.3332 21.3333H28.1332C28.0595 21.3333 27.9998 21.393 27.9998 21.4667V26.5333C27.9998 26.607 28.0595 26.6667 28.1332 26.6667H31.3332C31.7014 26.6667 31.9998 26.9651 31.9998 27.3333V28.6667C31.9998 29.0349 31.7014 29.3333 31.3332 29.3333H25.9998Z" fill="#F5F5F5"/>
<defs>
<filter id="filter0_d_326_4546" x="16" y="35.3336" width="18" height="4.66663" filterUnits="userSpaceOnUse" color-interpolation-filters="sRGB">
<feFlood flood-opacity="0" result="BackgroundImageFix"/>
<feColorMatrix in="SourceAlpha" type="matrix" values="0 0 0 0 0 0 0 0 0 0 0 0 0 0 0 0 0 0 127 0" result="hardAlpha"/>
<feOffset dx="1" dy="1"/>
<feGaussianBlur stdDeviation="0.5"/>
<feComposite in2="hardAlpha" operator="out"/>
<feColorMatrix type="matrix" values="0 0 0 0 0.0392157 0 0 0 0 0.0392157 0 0 0 0 0.0392157 0 0 0 0.04 0"/>
<feBlend mode="normal" in2="BackgroundImageFix" result="effect1_dropShadow_326_4546"/>
<feBlend mode="normal" in="SourceGraphic" in2="effect1_dropShadow_326_4546" result="shape"/>
</filter>
</defs>
</svg>
