<svg width="48" height="48" viewBox="0 0 48 48" fill="none" xmlns="http://www.w3.org/2000/svg">
<g filter="url(#filter0_d_326_4642)">
<path fill-rule="evenodd" clip-rule="evenodd" d="M12.6661 14.667C12.2979 14.667 11.9994 14.9655 11.9994 15.3337V32.667C11.9994 33.0352 12.2979 33.3337 12.6661 33.3337H35.3327C35.7009 33.3337 35.9994 33.0352 35.9994 32.667V15.3337C35.9994 14.9655 35.7009 14.667 35.3327 14.667H12.6661ZM16.6666 29.3333C16.2984 29.3333 16 29.0349 16 28.6667V19.3333C16 18.9651 16.2984 18.6667 16.6666 18.6667H22C22.3681 18.6667 22.6666 18.9651 22.6666 19.3333V20.6667C22.6666 21.0349 22.3681 21.3333 22 21.3333H18.8C18.7263 21.3333 18.6666 21.393 18.6666 21.4667V26.5333C18.6666 26.607 18.7263 26.6667 18.8 26.6667H22C22.3681 26.6667 22.6666 26.9651 22.6666 27.3333V28.6667C22.6666 29.0349 22.3681 29.3333 22 29.3333H16.6666ZM26 29.3333C25.6318 29.3333 25.3333 29.0349 25.3333 28.6667V19.3333C25.3333 18.9651 25.6318 18.6667 26 18.6667H31.3333C31.7015 18.6667 32 18.9651 32 19.3333V20.6667C32 21.0349 31.7015 21.3333 31.3333 21.3333H28.1333C28.0597 21.3333 28 21.393 28 21.4667V26.5333C28 26.607 28.0597 26.6667 28.1333 26.6667H31.3333C31.7015 26.6667 32 26.9651 32 27.3333V28.6667C32 29.0349 31.7015 29.3333 31.3333 29.3333H26Z" fill="#F5F5F5"/>
</g>
<defs>
<filter id="filter0_d_326_4642" x="11.9994" y="14.667" width="26" height="20.6667" filterUnits="userSpaceOnUse" color-interpolation-filters="sRGB">
<feFlood flood-opacity="0" result="BackgroundImageFix"/>
<feColorMatrix in="SourceAlpha" type="matrix" values="0 0 0 0 0 0 0 0 0 0 0 0 0 0 0 0 0 0 127 0" result="hardAlpha"/>
<feOffset dx="1" dy="1"/>
<feGaussianBlur stdDeviation="0.5"/>
<feComposite in2="hardAlpha" operator="out"/>
<feColorMatrix type="matrix" values="0 0 0 0 0.0392157 0 0 0 0 0.0392157 0 0 0 0 0.0392157 0 0 0 0.04 0"/>
<feBlend mode="normal" in2="BackgroundImageFix" result="effect1_dropShadow_326_4642"/>
<feBlend mode="normal" in="SourceGraphic" in2="effect1_dropShadow_326_4642" result="shape"/>
</filter>
</defs>
</svg>
