<svg width="48" height="48" viewBox="0 0 48 48" fill="none" xmlns="http://www.w3.org/2000/svg">
<g filter="url(#filter0_d_326_4621)">
<path d="M27.3334 21.3334C26.9652 21.3334 26.6667 21.0349 26.6667 20.6667L26.6667 15.3334C26.6667 14.9652 26.9652 14.6667 27.3334 14.6667H29.3334C29.7016 14.6667 30.0001 14.9652 30.0001 15.3334V17.8667C30.0001 17.9403 30.0598 18 30.1334 18L32.6667 18C33.0349 18 33.3334 18.2985 33.3334 18.6667V20.6667C33.3334 21.0349 33.0349 21.3334 32.6667 21.3334L27.3334 21.3334Z" fill="#F5F5F5"/>
<path d="M21.3334 27.3334C21.3334 26.9652 21.0349 26.6667 20.6667 26.6667H15.3334C14.9652 26.6667 14.6667 26.9652 14.6667 27.3334V29.3334C14.6667 29.7015 14.9652 30 15.3334 30H17.8667C17.9404 30 18.0001 30.0597 18.0001 30.1334L18.0001 32.6667C18.0001 33.0349 18.2986 33.3334 18.6667 33.3334H20.6667C21.0349 33.3334 21.3334 33.0349 21.3334 32.6667L21.3334 27.3334Z" fill="#F5F5F5"/>
<path d="M26.6667 32.6667C26.6667 33.0349 26.9652 33.3334 27.3334 33.3334H29.3334C29.7016 33.3334 30.0001 33.0349 30.0001 32.6667V30.1334C30.0001 30.0597 30.0598 30 30.1334 30H32.6667C33.0349 30 33.3334 29.7015 33.3334 29.3334V27.3334C33.3334 26.9652 33.0349 26.6667 32.6667 26.6667L27.3334 26.6667C26.9652 26.6667 26.6667 26.9652 26.6667 27.3334L26.6667 32.6667Z" fill="#F5F5F5"/>
<path d="M18.6667 21.3334H20.6667C21.0349 21.3334 21.3334 21.0349 21.3334 20.6667L21.3334 18.6667V15.3334C21.3334 14.9652 21.0349 14.6667 20.6667 14.6667H18.6667C18.2986 14.6667 18.0001 14.9652 18.0001 15.3334L18.0001 17.8667C18.0001 17.9403 17.9404 18 17.8667 18L15.3334 18C14.9652 18 14.6667 18.2985 14.6667 18.6667V20.6667C14.6667 21.0349 14.9652 21.3334 15.3334 21.3334L18.6667 21.3334Z" fill="#F5F5F5"/>
</g>
<defs>
<filter id="filter0_d_326_4621" x="14.6667" y="14.6667" width="20.6667" height="20.6667" filterUnits="userSpaceOnUse" color-interpolation-filters="sRGB">
<feFlood flood-opacity="0" result="BackgroundImageFix"/>
<feColorMatrix in="SourceAlpha" type="matrix" values="0 0 0 0 0 0 0 0 0 0 0 0 0 0 0 0 0 0 127 0" result="hardAlpha"/>
<feOffset dx="1" dy="1"/>
<feGaussianBlur stdDeviation="0.5"/>
<feComposite in2="hardAlpha" operator="out"/>
<feColorMatrix type="matrix" values="0 0 0 0 0.0392157 0 0 0 0 0.0392157 0 0 0 0 0.0392157 0 0 0 0.04 0"/>
<feBlend mode="normal" in2="BackgroundImageFix" result="effect1_dropShadow_326_4621"/>
<feBlend mode="normal" in="SourceGraphic" in2="effect1_dropShadow_326_4621" result="shape"/>
</filter>
</defs>
</svg>
