<svg width="48" height="48" viewBox="0 0 48 48" fill="none" xmlns="http://www.w3.org/2000/svg">
<rect width="48" height="48" rx="8" fill="#F5F5F5" fill-opacity="0.08"/>
<g filter="url(#filter0_d_326_4644)">
<path d="M33.3299 15.2652C33.2957 14.929 33.0118 14.6667 32.6666 14.6667H27.3333C26.9651 14.6667 26.6666 14.9652 26.6666 15.3334V17.3334C26.6666 17.7015 26.9651 18 27.3333 18L29.8666 18C29.9403 18 30 18.0597 30 18.1334V20.6667C30 21.0349 30.2984 21.3334 30.6666 21.3334H32.6666C33.0348 21.3334 33.3333 21.0349 33.3333 20.6667V15.3334C33.3333 15.3103 33.3321 15.2876 33.3299 15.2652Z" fill="#F5F5F5"/>
<path d="M30 29.8667C30 29.9403 29.9403 30 29.8666 30L27.3333 30C26.9651 30 26.6666 30.2985 26.6666 30.6667V32.6667C26.6666 33.0349 26.9651 33.3334 27.3333 33.3334L32.6666 33.3334C33.0348 33.3334 33.3333 33.0349 33.3333 32.6667V27.3334C33.3333 26.9652 33.0348 26.6667 32.6666 26.6667H30.6666C30.2984 26.6667 30 26.9652 30 27.3334V29.8667Z" fill="#F5F5F5"/>
<path d="M20.6666 30H18.1333C18.0597 30 18 29.9403 18 29.8667V27.3334C18 26.9652 17.7015 26.6667 17.3333 26.6667H15.3333C14.9651 26.6667 14.6666 26.9652 14.6666 27.3334V32.6667C14.6666 33.0349 14.9651 33.3334 15.3333 33.3334H20.6666C21.0348 33.3334 21.3333 33.0349 21.3333 32.6667V30.6667C21.3333 30.2985 21.0348 30 20.6666 30Z" fill="#F5F5F5"/>
<path d="M18 20.6667V18.1334C18 18.0597 18.0597 18 18.1333 18L20.6666 18C21.0348 18 21.3333 17.7015 21.3333 17.3334V15.3334C21.3333 14.9652 21.0348 14.6667 20.6666 14.6667H15.3333C14.9651 14.6667 14.6666 14.9652 14.6666 15.3334V20.6667C14.6666 21.0349 14.9651 21.3334 15.3333 21.3334H17.3333C17.7015 21.3334 18 21.0349 18 20.6667Z" fill="#F5F5F5"/>
</g>
<defs>
<filter id="filter0_d_326_4644" x="14.6666" y="14.6667" width="20.6666" height="20.6667" filterUnits="userSpaceOnUse" color-interpolation-filters="sRGB">
<feFlood flood-opacity="0" result="BackgroundImageFix"/>
<feColorMatrix in="SourceAlpha" type="matrix" values="0 0 0 0 0 0 0 0 0 0 0 0 0 0 0 0 0 0 127 0" result="hardAlpha"/>
<feOffset dx="1" dy="1"/>
<feGaussianBlur stdDeviation="0.5"/>
<feComposite in2="hardAlpha" operator="out"/>
<feColorMatrix type="matrix" values="0 0 0 0 0.0392157 0 0 0 0 0.0392157 0 0 0 0 0.0392157 0 0 0 0.04 0"/>
<feBlend mode="normal" in2="BackgroundImageFix" result="effect1_dropShadow_326_4644"/>
<feBlend mode="normal" in="SourceGraphic" in2="effect1_dropShadow_326_4644" result="shape"/>
</filter>
</defs>
</svg>
