<svg width="278" height="152" viewBox="0 0 278 152" fill="none" xmlns="http://www.w3.org/2000/svg">
<g filter="url(#filter0_bd_326_4463)">
<rect width="276" height="150" rx="12" fill="#0A0A0A" fill-opacity="0.8" shape-rendering="crispEdges"/>
<g filter="url(#filter1_d_326_4463)">
<path d="M38.855 37.8316C38.7628 37.9399 38.6267 38 38.4845 38H37.1093C36.5813 38 36.33 37.1404 36.7058 36.7696C37.9371 35.5547 38.7002 33.8665 38.7002 32C38.7002 28.2998 35.7002 25.2998 32 25.2998C28.2998 25.2998 25.2998 28.2998 25.2998 32C25.2998 33.8665 26.0629 35.5547 27.2942 36.7696C27.67 37.1404 27.4187 38 26.8907 38H25.5155C25.3733 38 25.2372 37.9399 25.145 37.8316C23.8078 36.2613 23 34.2243 23 32C23 27.0293 27.0293 23 32 23C36.9707 23 41 27.0293 41 32C41 34.2243 40.1922 36.2613 38.855 37.8316Z" fill="#F5F5F5"/>
<path d="M35.8994 29.7549C36.0946 29.5597 36.0946 29.2431 35.8994 29.0478L35.1923 28.3407C34.997 28.1455 34.6804 28.1455 34.4852 28.3407L32.3369 30.489C32.3139 30.512 32.2812 30.5222 32.249 30.5176C32.1677 30.506 32.0845 30.5 32 30.5C31.0335 30.5 30.25 31.2835 30.25 32.25C30.25 33.2165 31.0335 34 32 34C32.9665 34 33.75 33.2165 33.75 32.25C33.75 32.1598 33.7432 32.0712 33.73 31.9847C33.7251 31.9522 33.7352 31.9191 33.7585 31.8959L35.8994 29.7549Z" fill="#F5F5F5"/>
</g>
<g filter="url(#filter2_d_326_4463)">
<path d="M61.625 27.9205C61.5644 27.3826 61.3144 26.9659 60.875 26.6705C60.4356 26.3712 59.8826 26.2216 59.2159 26.2216C58.7386 26.2216 58.3258 26.2973 57.9773 26.4489C57.6288 26.5966 57.358 26.8011 57.1648 27.0625C56.9754 27.3201 56.8807 27.6136 56.8807 27.9432C56.8807 28.2197 56.9451 28.4583 57.0739 28.6591C57.2064 28.8598 57.3788 29.0284 57.5909 29.1648C57.8068 29.2973 58.0379 29.4091 58.2841 29.5C58.5303 29.5871 58.767 29.6591 58.9943 29.7159L60.1307 30.0114C60.5019 30.1023 60.8826 30.2254 61.2727 30.3807C61.6629 30.536 62.0246 30.7405 62.358 30.9943C62.6913 31.2481 62.9602 31.5625 63.1648 31.9375C63.3731 32.3125 63.4773 32.7614 63.4773 33.2841C63.4773 33.9432 63.3068 34.5284 62.9659 35.0398C62.6288 35.5511 62.1383 35.9545 61.4943 36.25C60.8542 36.5455 60.0795 36.6932 59.1705 36.6932C58.2992 36.6932 57.5455 36.5549 56.9091 36.2784C56.2727 36.0019 55.7746 35.6098 55.4148 35.1023C55.0549 34.5909 54.8561 33.9848 54.8182 33.2841H56.5795C56.6136 33.7045 56.75 34.0549 56.9886 34.3352C57.2311 34.6117 57.5398 34.8182 57.9148 34.9545C58.2936 35.0871 58.7083 35.1534 59.1591 35.1534C59.6553 35.1534 60.0966 35.0758 60.483 34.9205C60.8731 34.7614 61.1799 34.5417 61.4034 34.2614C61.6269 33.9773 61.7386 33.6458 61.7386 33.267C61.7386 32.9223 61.6402 32.6402 61.4432 32.4205C61.25 32.2008 60.9867 32.0189 60.6534 31.875C60.3239 31.7311 59.9508 31.6042 59.5341 31.4943L58.1591 31.1193C57.2273 30.8655 56.4886 30.4924 55.9432 30C55.4015 29.5076 55.1307 28.8561 55.1307 28.0455C55.1307 27.375 55.3125 26.7898 55.6761 26.2898C56.0398 25.7898 56.5322 25.4015 57.1534 25.125C57.7746 24.8447 58.4754 24.7045 59.2557 24.7045C60.0436 24.7045 60.7386 24.8428 61.3409 25.1193C61.947 25.3958 62.4242 25.7765 62.7727 26.2614C63.1212 26.7424 63.303 27.2955 63.3182 27.9205H61.625ZM65.5669 39.7727V27.7727H67.226V29.1875H67.3681C67.4665 29.0057 67.6086 28.7955 67.7942 28.5568C67.9798 28.3182 68.2374 28.1098 68.5669 27.9318C68.8965 27.75 69.3321 27.6591 69.8737 27.6591C70.5783 27.6591 71.2071 27.8371 71.7601 28.1932C72.3131 28.5492 72.7468 29.0625 73.0612 29.733C73.3794 30.4034 73.5385 31.2102 73.5385 32.1534C73.5385 33.0966 73.3813 33.9053 73.0669 34.5795C72.7525 35.25 72.3207 35.767 71.7715 36.1307C71.2222 36.4905 70.5953 36.6705 69.8908 36.6705C69.3605 36.6705 68.9268 36.5814 68.5896 36.4034C68.2563 36.2254 67.995 36.017 67.8056 35.7784C67.6162 35.5398 67.4703 35.3277 67.3681 35.142H67.2658V39.7727H65.5669ZM67.2317 32.1364C67.2317 32.75 67.3207 33.2879 67.4987 33.75C67.6768 34.2121 67.9343 34.5739 68.2715 34.8352C68.6086 35.0928 69.0215 35.2216 69.5101 35.2216C70.0177 35.2216 70.4419 35.0871 70.7828 34.8182C71.1237 34.5455 71.3813 34.1761 71.5556 33.7102C71.7336 33.2443 71.8226 32.7197 71.8226 32.1364C71.8226 31.5606 71.7355 31.0436 71.5612 30.5852C71.3908 30.1269 71.1332 29.7652 70.7885 29.5C70.4476 29.2348 70.0215 29.1023 69.5101 29.1023C69.0177 29.1023 68.601 29.2292 68.2601 29.483C67.923 29.7367 67.6673 30.0909 67.4931 30.5455C67.3188 31 67.2317 31.5303 67.2317 32.1364ZM79.3313 36.6761C78.4714 36.6761 77.7309 36.4924 77.1097 36.125C76.4923 35.7538 76.015 35.233 75.6779 34.5625C75.3445 33.8883 75.1779 33.0985 75.1779 32.1932C75.1779 31.2992 75.3445 30.5114 75.6779 29.8295C76.015 29.1477 76.4847 28.6155 77.087 28.233C77.693 27.8504 78.4014 27.6591 79.212 27.6591C79.7044 27.6591 80.1817 27.7405 80.6438 27.9034C81.1059 28.0663 81.5207 28.322 81.8881 28.6705C82.2555 29.0189 82.5453 29.4716 82.7574 30.0284C82.9695 30.5814 83.0756 31.2538 83.0756 32.0455V32.6477H76.1381V31.375H81.4108C81.4108 30.928 81.3199 30.5322 81.1381 30.1875C80.9563 29.839 80.7006 29.5644 80.3711 29.3636C80.0453 29.1629 79.6627 29.0625 79.2233 29.0625C78.7461 29.0625 78.3294 29.1799 77.9733 29.4148C77.6211 29.6458 77.3483 29.9489 77.1551 30.3239C76.9658 30.6951 76.8711 31.0985 76.8711 31.5341V32.5284C76.8711 33.1117 76.9733 33.608 77.1779 34.017C77.3862 34.4261 77.676 34.7386 78.0472 34.9545C78.4184 35.1667 78.8521 35.2727 79.3483 35.2727C79.6703 35.2727 79.9639 35.2273 80.229 35.1364C80.4942 35.0417 80.7233 34.9015 80.9165 34.7159C81.1097 34.5303 81.2574 34.3011 81.3597 34.0284L82.9676 34.3182C82.8389 34.7917 82.6078 35.2064 82.2745 35.5625C81.9449 35.9148 81.5301 36.1894 81.0301 36.3864C80.5339 36.5795 79.9676 36.6761 79.3313 36.6761ZM88.8499 36.6761C87.9901 36.6761 87.2495 36.4924 86.6283 36.125C86.0109 35.7538 85.5336 35.233 85.1965 34.5625C84.8632 33.8883 84.6965 33.0985 84.6965 32.1932C84.6965 31.2992 84.8632 30.5114 85.1965 29.8295C85.5336 29.1477 86.0033 28.6155 86.6056 28.233C87.2117 27.8504 87.92 27.6591 88.7306 27.6591C89.223 27.6591 89.7003 27.7405 90.1624 27.9034C90.6245 28.0663 91.0393 28.322 91.4067 28.6705C91.7742 29.0189 92.0639 29.4716 92.276 30.0284C92.4882 30.5814 92.5942 31.2538 92.5942 32.0455V32.6477H85.6567V31.375H90.9295C90.9295 30.928 90.8385 30.5322 90.6567 30.1875C90.4749 29.839 90.2192 29.5644 89.8897 29.3636C89.5639 29.1629 89.1813 29.0625 88.742 29.0625C88.2647 29.0625 87.848 29.1799 87.492 29.4148C87.1397 29.6458 86.867 29.9489 86.6738 30.3239C86.4844 30.6951 86.3897 31.0985 86.3897 31.5341V32.5284C86.3897 33.1117 86.492 33.608 86.6965 34.017C86.9048 34.4261 87.1946 34.7386 87.5658 34.9545C87.937 35.1667 88.3707 35.2727 88.867 35.2727C89.1889 35.2727 89.4825 35.2273 89.7476 35.1364C90.0128 35.0417 90.242 34.9015 90.4351 34.7159C90.6283 34.5303 90.776 34.3011 90.8783 34.0284L92.4863 34.3182C92.3575 34.7917 92.1264 35.2064 91.7931 35.5625C91.4635 35.9148 91.0488 36.1894 90.5488 36.3864C90.0526 36.5795 89.4863 36.6761 88.8499 36.6761ZM97.8742 36.6705C97.1697 36.6705 96.5409 36.4905 95.9879 36.1307C95.4386 35.767 95.0068 35.25 94.6924 34.5795C94.3818 33.9053 94.2265 33.0966 94.2265 32.1534C94.2265 31.2102 94.3837 30.4034 94.6981 29.733C95.0163 29.0625 95.4519 28.5492 96.0049 28.1932C96.5579 27.8371 97.1848 27.6591 97.8856 27.6591C98.4272 27.6591 98.8629 27.75 99.1924 27.9318C99.5257 28.1098 99.7833 28.3182 99.9651 28.5568C100.151 28.7955 100.295 29.0057 100.397 29.1875H100.499V24.8636H102.198V36.5H100.539V35.142H100.397C100.295 35.3277 100.147 35.5398 99.9538 35.7784C99.7644 36.017 99.503 36.2254 99.1697 36.4034C98.8363 36.5814 98.4045 36.6705 97.8742 36.6705ZM98.2492 35.2216C98.7379 35.2216 99.1507 35.0928 99.4879 34.8352C99.8288 34.5739 100.086 34.2121 100.261 33.75C100.439 33.2879 100.528 32.75 100.528 32.1364C100.528 31.5303 100.441 31 100.266 30.5455C100.092 30.0909 99.8363 29.7367 99.4992 29.483C99.1621 29.2292 98.7454 29.1023 98.2492 29.1023C97.7379 29.1023 97.3117 29.2348 96.9708 29.5C96.6299 29.7652 96.3723 30.1269 96.1981 30.5852C96.0276 31.0436 95.9424 31.5606 95.9424 32.1364C95.9424 32.7197 96.0295 33.2443 96.2038 33.7102C96.378 34.1761 96.6356 34.5455 96.9765 34.8182C97.3212 35.0871 97.7454 35.2216 98.2492 35.2216Z" fill="#F5F5F5"/>
</g>
<g filter="url(#filter3_d_326_4463)">
<path d="M216.534 24.8636V36.5H214.773V26.625H214.705L211.92 28.4432V26.7614L214.824 24.8636H216.534ZM221.173 27.7727L223.1 31.1705L225.043 27.7727H226.901L224.179 32.1364L226.923 36.5H225.065L223.1 33.2386L221.139 36.5H219.276L221.992 32.1364L219.31 27.7727H221.173Z" fill="#F5F5F5" fill-opacity="0.5" shape-rendering="crispEdges"/>
</g>
<g filter="url(#filter4_d_326_4463)">
<path d="M247.663 30.9466C247.693 30.9759 247.693 31.0233 247.663 31.0526L244.11 34.6062C243.963 34.7527 243.963 34.9901 244.11 35.1366L245.011 36.0381C245.158 36.1846 245.395 36.1846 245.542 36.0381L249.397 32.1828C249.403 32.1777 249.408 32.1724 249.414 32.1668L250.316 31.2653C250.462 31.1188 250.462 30.8814 250.316 30.7349L245.543 25.962C245.396 25.8155 245.159 25.8155 245.012 25.962L244.111 26.8635C243.964 27.01 243.964 27.2474 244.111 27.3939L247.663 30.9466Z" fill="#F5F5F5" fill-opacity="0.5" shape-rendering="crispEdges"/>
</g>
<rect x="10" y="54" width="256" height="42" rx="8" fill="#F5F5F5" fill-opacity="0.08"/>
<g filter="url(#filter5_d_326_4463)">
<path d="M34.0002 70.8C34.0002 71.0761 33.7763 71.3 33.5002 71.3H32.2002C31.924 71.3 31.7002 71.0761 31.7002 70.8V70.4C31.7002 70.3448 31.6554 70.3 31.6002 70.3H24.5C24.2239 70.3 24 70.0761 24 69.8V68.5C24 68.2239 24.2239 68 24.5 68H31.6002C31.6554 68 31.7002 67.9552 31.7002 67.9V67.5C31.7002 67.2239 31.924 67 32.2002 67H33.5002C33.7763 67 34.0002 67.2239 34.0002 67.5V70.8Z" fill="#F5F5F5"/>
<path d="M28.5001 77.15C28.7762 77.15 29.0001 76.9262 29.0001 76.65V73.35C29.0001 73.0739 28.7762 72.85 28.5001 72.85H27.2001C26.9239 72.85 26.7001 73.0739 26.7001 73.35V73.75C26.7001 73.8053 26.6553 73.85 26.6001 73.85H24.5001C24.2239 73.85 24.0001 74.0739 24.0001 74.35V75.65C24.0001 75.9262 24.2239 76.15 24.5001 76.15H26.6001C26.6553 76.15 26.7001 76.1948 26.7001 76.25V76.65C26.7001 76.9262 26.9239 77.15 27.2001 77.15H28.5001Z" fill="#F5F5F5"/>
<path d="M34 82.5C34 82.7762 33.7762 83 33.5 83H32.2C31.9239 83 31.7 82.7762 31.7 82.5V82.1C31.7 82.0448 31.6553 82 31.6 82H24.5001C24.224 82 24.0001 81.7762 24.0001 81.5V80.2C24.0001 79.9239 24.224 79.7 24.5001 79.7H31.6C31.6553 79.7 31.7 79.6552 31.7 79.6V79.2C31.7 78.9239 31.9239 78.7 32.2 78.7H33.5C33.7762 78.7 34 78.9239 34 79.2V82.5Z" fill="#F5F5F5"/>
<path d="M36.5 81.5C36.5 81.7762 36.7239 82 37 82H39.5001C39.7763 82 40.0001 81.7762 40.0001 81.5V80.2C40.0001 79.9239 39.7763 79.7 39.5001 79.7H37C36.7239 79.7 36.5 79.9239 36.5 80.2V81.5Z" fill="#F5F5F5"/>
<path d="M32.0001 76.15C31.7239 76.15 31.5001 75.9262 31.5001 75.65V74.35C31.5001 74.0739 31.7239 73.85 32.0001 73.85H39.5001C39.7762 73.85 40.0001 74.0739 40.0001 74.35V75.65C40.0001 75.9262 39.7762 76.15 39.5001 76.15H32.0001Z" fill="#F5F5F5"/>
<path d="M36.5002 69.8C36.5002 70.0761 36.724 70.3 37.0002 70.3H39.5C39.7761 70.3 40 70.0761 40 69.8V68.5C40 68.2239 39.7761 68 39.5 68H37.0002C36.724 68 36.5002 68.2239 36.5002 68.5V69.8Z" fill="#F5F5F5"/>
</g>
<g filter="url(#filter6_d_326_4463)">
<path d="M59.5568 76.7273H61.2841L62.5 78.3125L63.0739 79.017L65.0114 81.5455H63.2159L61.9205 79.858L61.4773 79.2443L59.5568 76.7273ZM65.3864 74.6818C65.3864 75.9242 65.1591 76.9924 64.7045 77.8864C64.25 78.7765 63.6269 79.4621 62.8352 79.9432C62.0473 80.4205 61.1515 80.6591 60.1477 80.6591C59.1402 80.6591 58.2405 80.4205 57.4489 79.9432C56.661 79.4621 56.0398 78.7746 55.5852 77.8807C55.1307 76.9867 54.9034 75.9205 54.9034 74.6818C54.9034 73.4394 55.1307 72.3731 55.5852 71.483C56.0398 70.589 56.661 69.9034 57.4489 69.4261C58.2405 68.9451 59.1402 68.7045 60.1477 68.7045C61.1515 68.7045 62.0473 68.9451 62.8352 69.4261C63.6269 69.9034 64.25 70.589 64.7045 71.483C65.1591 72.3731 65.3864 73.4394 65.3864 74.6818ZM63.6477 74.6818C63.6477 73.7348 63.4943 72.9375 63.1875 72.2898C62.8845 71.6383 62.4678 71.1458 61.9375 70.8125C61.411 70.4754 60.8144 70.3068 60.1477 70.3068C59.4773 70.3068 58.8788 70.4754 58.3523 70.8125C57.8258 71.1458 57.4091 71.6383 57.1023 72.2898C56.7992 72.9375 56.6477 73.7348 56.6477 74.6818C56.6477 75.6288 56.7992 76.428 57.1023 77.0795C57.4091 77.7273 57.8258 78.2197 58.3523 78.5568C58.8788 78.8902 59.4773 79.0568 60.1477 79.0568C60.8144 79.0568 61.411 78.8902 61.9375 78.5568C62.4678 78.2197 62.8845 77.7273 63.1875 77.0795C63.4943 76.428 63.6477 75.6288 63.6477 74.6818ZM73.0953 76.8807V71.7727H74.7999V80.5H73.1294V78.9886H73.0385C72.8378 79.4545 72.5158 79.8428 72.0726 80.1534C71.6332 80.4602 71.0859 80.6136 70.4306 80.6136C69.87 80.6136 69.3737 80.4905 68.9419 80.2443C68.5139 79.9943 68.1768 79.625 67.9306 79.1364C67.6881 78.6477 67.5669 78.0436 67.5669 77.3239V71.7727H69.2658V77.1193C69.2658 77.714 69.4306 78.1875 69.7601 78.5398C70.0896 78.892 70.5177 79.0682 71.0442 79.0682C71.3624 79.0682 71.6787 78.9886 71.9931 78.8295C72.3112 78.6705 72.5745 78.4299 72.7828 78.108C72.995 77.786 73.0991 77.3769 73.0953 76.8807ZM79.7503 80.6932C79.1973 80.6932 78.6973 80.5909 78.2503 80.3864C77.8033 80.178 77.4492 79.8769 77.1878 79.483C76.9302 79.089 76.8015 78.6061 76.8015 78.0341C76.8015 77.5417 76.8962 77.1364 77.0855 76.8182C77.2749 76.5 77.5306 76.2481 77.8526 76.0625C78.1746 75.8769 78.5344 75.7367 78.9321 75.642C79.3299 75.5473 79.7352 75.4754 80.148 75.4261C80.6708 75.3655 81.095 75.3163 81.4208 75.2784C81.7465 75.2367 81.9833 75.1705 82.131 75.0795C82.2787 74.9886 82.3526 74.8409 82.3526 74.6364V74.5966C82.3526 74.1004 82.2124 73.7159 81.9321 73.4432C81.6556 73.1705 81.2427 73.0341 80.6935 73.0341C80.1215 73.0341 79.6708 73.161 79.3412 73.4148C79.0155 73.6648 78.7901 73.9432 78.6651 74.25L77.0685 73.8864C77.2579 73.3561 77.5344 72.928 77.898 72.6023C78.2655 72.2727 78.6878 72.0341 79.1651 71.8864C79.6424 71.7348 80.1443 71.6591 80.6708 71.6591C81.0193 71.6591 81.3886 71.7008 81.7787 71.7841C82.1727 71.8636 82.5401 72.0114 82.881 72.2273C83.2257 72.4432 83.5079 72.7519 83.7276 73.1534C83.9473 73.5511 84.0571 74.0682 84.0571 74.7045V80.5H82.398V79.3068H82.3299C82.22 79.5265 82.0552 79.7424 81.8355 79.9545C81.6158 80.1667 81.3337 80.3428 80.989 80.483C80.6443 80.6231 80.2314 80.6932 79.7503 80.6932ZM80.1196 79.3295C80.5893 79.3295 80.9908 79.2367 81.3242 79.0511C81.6613 78.8655 81.917 78.6231 82.0912 78.3239C82.2693 78.0208 82.3583 77.697 82.3583 77.3523V76.2273C82.2977 76.2879 82.1802 76.3447 82.006 76.3977C81.8355 76.447 81.6405 76.4905 81.4208 76.5284C81.2011 76.5625 80.9871 76.5947 80.7787 76.625C80.5704 76.6515 80.3962 76.6742 80.256 76.6932C79.9265 76.7348 79.6253 76.8049 79.3526 76.9034C79.0837 77.0019 78.8677 77.1439 78.7049 77.3295C78.5458 77.5114 78.4662 77.7538 78.4662 78.0568C78.4662 78.4773 78.6215 78.7955 78.9321 79.0114C79.2427 79.2235 79.6386 79.3295 80.1196 79.3295ZM88.1468 68.8636V80.5H86.4479V68.8636H88.1468ZM90.5603 80.5V71.7727H92.2592V80.5H90.5603ZM91.4183 70.4261C91.1228 70.4261 90.869 70.3277 90.6569 70.1307C90.4486 69.9299 90.3444 69.6913 90.3444 69.4148C90.3444 69.1345 90.4486 68.8958 90.6569 68.6989C90.869 68.4981 91.1228 68.3977 91.4183 68.3977C91.7137 68.3977 91.9656 68.4981 92.1739 68.6989C92.3861 68.8958 92.4921 69.1345 92.4921 69.4148C92.4921 69.6913 92.3861 69.9299 92.1739 70.1307C91.9656 70.3277 91.7137 70.4261 91.4183 70.4261ZM98.7465 71.7727V73.1364H93.9795V71.7727H98.7465ZM95.2579 69.6818H96.9568V77.9375C96.9568 78.267 97.006 78.5152 97.1045 78.6818C97.203 78.8447 97.3299 78.9564 97.4852 79.017C97.6443 79.0739 97.8166 79.1023 98.0022 79.1023C98.1386 79.1023 98.2579 79.0928 98.3602 79.0739C98.4624 79.0549 98.542 79.0398 98.5988 79.0284L98.9056 80.4318C98.8071 80.4697 98.667 80.5076 98.4852 80.5455C98.3034 80.5871 98.0761 80.6098 97.8034 80.6136C97.3564 80.6212 96.9397 80.5417 96.5534 80.375C96.167 80.2083 95.8545 79.9508 95.6159 79.6023C95.3772 79.2538 95.2579 78.8163 95.2579 78.2898V69.6818ZM101.828 83.7727C101.574 83.7727 101.343 83.7519 101.134 83.7102C100.926 83.6723 100.771 83.6307 100.669 83.5852L101.078 82.1932C101.388 82.2765 101.665 82.3125 101.907 82.3011C102.15 82.2898 102.364 82.1989 102.549 82.0284C102.739 81.858 102.905 81.5795 103.049 81.1932L103.259 80.6136L100.066 71.7727H101.884L104.095 78.5455H104.186L106.396 71.7727H108.22L104.623 81.6648C104.456 82.1193 104.244 82.5038 103.987 82.8182C103.729 83.1364 103.422 83.375 103.066 83.5341C102.71 83.6932 102.297 83.7727 101.828 83.7727Z" fill="#F5F5F5"/>
</g>
<g filter="url(#filter7_d_326_4463)">
<path d="M184.534 68.8636V80.5H182.773V70.625H182.705L179.92 72.4432V70.7614L182.824 68.8636H184.534ZM191.861 80.6932C190.963 80.6894 190.196 80.4527 189.56 79.983C188.923 79.5133 188.437 78.8295 188.1 77.9318C187.762 77.0341 187.594 75.9527 187.594 74.6875C187.594 73.4261 187.762 72.3485 188.1 71.4545C188.44 70.5606 188.929 69.8788 189.565 69.4091C190.206 68.9394 190.971 68.7045 191.861 68.7045C192.751 68.7045 193.514 68.9413 194.151 69.4148C194.787 69.8845 195.274 70.5663 195.611 71.4602C195.952 72.3504 196.122 73.4261 196.122 74.6875C196.122 75.9564 195.954 77.0398 195.617 77.9375C195.28 78.8314 194.793 79.5152 194.156 79.9886C193.52 80.4583 192.755 80.6932 191.861 80.6932ZM191.861 79.1761C192.649 79.1761 193.264 78.7917 193.708 78.0227C194.155 77.2538 194.378 76.142 194.378 74.6875C194.378 73.7216 194.276 72.9053 194.071 72.2386C193.87 71.5682 193.581 71.0606 193.202 70.7159C192.827 70.3674 192.38 70.1932 191.861 70.1932C191.077 70.1932 190.461 70.5795 190.014 71.3523C189.567 72.125 189.342 73.2367 189.338 74.6875C189.338 75.6572 189.439 76.4773 189.639 77.1477C189.844 77.8144 190.134 78.3201 190.509 78.6648C190.884 79.0057 191.334 79.1761 191.861 79.1761ZM202.198 80.6591C201.383 80.6591 200.664 80.5189 200.039 80.2386C199.417 79.9583 198.931 79.572 198.578 79.0795C198.226 78.5871 198.052 78.0265 198.056 77.3977C198.052 76.9053 198.152 76.4527 198.357 76.0398C198.565 75.6231 198.847 75.2765 199.203 75C199.56 74.7197 199.957 74.5417 200.397 74.4659V74.3977C199.817 74.2576 199.353 73.947 199.005 73.4659C198.656 72.9848 198.484 72.4318 198.488 71.8068C198.484 71.2121 198.641 70.6818 198.959 70.2159C199.281 69.7462 199.722 69.3769 200.283 69.108C200.844 68.839 201.482 68.7045 202.198 68.7045C202.906 68.7045 203.539 68.8409 204.095 69.1136C204.656 69.3826 205.097 69.7519 205.419 70.2216C205.741 70.6875 205.904 71.2159 205.908 71.8068C205.904 72.4318 205.726 72.9848 205.374 73.4659C205.022 73.947 204.563 74.2576 203.999 74.3977V74.4659C204.435 74.5417 204.827 74.7197 205.175 75C205.527 75.2765 205.808 75.6231 206.016 76.0398C206.228 76.4527 206.336 76.9053 206.34 77.3977C206.336 78.0265 206.158 78.5871 205.806 79.0795C205.453 79.572 204.965 79.9583 204.34 80.2386C203.719 80.5189 203.005 80.6591 202.198 80.6591ZM202.198 79.2216C202.679 79.2216 203.095 79.142 203.448 78.983C203.8 78.8201 204.073 78.5947 204.266 78.3068C204.459 78.0152 204.558 77.6742 204.561 77.2841C204.558 76.8788 204.452 76.5208 204.243 76.2102C204.039 75.8996 203.76 75.6553 203.408 75.4773C203.056 75.2992 202.652 75.2102 202.198 75.2102C201.739 75.2102 201.332 75.2992 200.976 75.4773C200.62 75.6553 200.34 75.8996 200.135 76.2102C199.931 76.5208 199.83 76.8788 199.834 77.2841C199.83 77.6742 199.923 78.0152 200.113 78.3068C200.306 78.5947 200.58 78.8201 200.936 78.983C201.292 79.142 201.713 79.2216 202.198 79.2216ZM202.198 73.8068C202.584 73.8068 202.927 73.7292 203.226 73.5739C203.525 73.4186 203.76 73.2027 203.931 72.9261C204.105 72.6496 204.194 72.3258 204.198 71.9545C204.194 71.5909 204.107 71.2727 203.936 71C203.77 70.7273 203.537 70.517 203.238 70.3693C202.938 70.2178 202.592 70.142 202.198 70.142C201.796 70.142 201.444 70.2178 201.141 70.3693C200.842 70.517 200.609 70.7273 200.442 71C200.275 71.2727 200.194 71.5909 200.198 71.9545C200.194 72.3258 200.277 72.6496 200.448 72.9261C200.618 73.2027 200.853 73.4186 201.152 73.5739C201.455 73.7292 201.804 73.8068 202.198 73.8068ZM212.554 80.6932C211.657 80.6894 210.89 80.4527 210.253 79.983C209.617 79.5133 209.13 78.8295 208.793 77.9318C208.456 77.0341 208.287 75.9527 208.287 74.6875C208.287 73.4261 208.456 72.3485 208.793 71.4545C209.134 70.5606 209.623 69.8788 210.259 69.4091C210.899 68.9394 211.664 68.7045 212.554 68.7045C213.445 68.7045 214.208 68.9413 214.844 69.4148C215.481 69.8845 215.967 70.5663 216.304 71.4602C216.645 72.3504 216.816 73.4261 216.816 74.6875C216.816 75.9564 216.647 77.0398 216.31 77.9375C215.973 78.8314 215.486 79.5152 214.85 79.9886C214.214 80.4583 213.448 80.6932 212.554 80.6932ZM212.554 79.1761C213.342 79.1761 213.958 78.7917 214.401 78.0227C214.848 77.2538 215.072 76.142 215.072 74.6875C215.072 73.7216 214.969 72.9053 214.765 72.2386C214.564 71.5682 214.274 71.0606 213.895 70.7159C213.52 70.3674 213.073 70.1932 212.554 70.1932C211.77 70.1932 211.155 70.5795 210.708 71.3523C210.261 72.125 210.036 73.2367 210.032 74.6875C210.032 75.6572 210.132 76.4773 210.333 77.1477C210.537 77.8144 210.827 78.3201 211.202 78.6648C211.577 79.0057 212.028 79.1761 212.554 79.1761ZM218.982 83.7727V71.7727H220.641V73.1875H220.783C220.882 73.0057 221.024 72.7955 221.209 72.5568C221.395 72.3182 221.653 72.1098 221.982 71.9318C222.312 71.75 222.747 71.6591 223.289 71.6591C223.994 71.6591 224.622 71.8371 225.175 72.1932C225.728 72.5492 226.162 73.0625 226.476 73.733C226.795 74.4034 226.954 75.2102 226.954 76.1534C226.954 77.0966 226.797 77.9053 226.482 78.5795C226.168 79.25 225.736 79.767 225.187 80.1307C224.637 80.4905 224.011 80.6705 223.306 80.6705C222.776 80.6705 222.342 80.5814 222.005 80.4034C221.672 80.2254 221.41 80.017 221.221 79.7784C221.031 79.5398 220.886 79.3277 220.783 79.142H220.681V83.7727H218.982ZM220.647 76.1364C220.647 76.75 220.736 77.2879 220.914 77.75C221.092 78.2121 221.35 78.5739 221.687 78.8352C222.024 79.0928 222.437 79.2216 222.925 79.2216C223.433 79.2216 223.857 79.0871 224.198 78.8182C224.539 78.5455 224.797 78.1761 224.971 77.7102C225.149 77.2443 225.238 76.7197 225.238 76.1364C225.238 75.5606 225.151 75.0436 224.976 74.5852C224.806 74.1269 224.548 73.7652 224.204 73.5C223.863 73.2348 223.437 73.1023 222.925 73.1023C222.433 73.1023 222.016 73.2292 221.675 73.483C221.338 73.7367 221.083 74.0909 220.908 74.5455C220.734 75 220.647 75.5303 220.647 76.1364Z" fill="#F5F5F5" fill-opacity="0.5" shape-rendering="crispEdges"/>
</g>
<g filter="url(#filter8_d_326_4463)">
<path d="M247.663 74.9466C247.693 74.9759 247.693 75.0233 247.663 75.0526L244.11 78.6062C243.963 78.7527 243.963 78.9901 244.11 79.1366L245.011 80.0381C245.158 80.1846 245.395 80.1846 245.542 80.0381L249.397 76.1828C249.403 76.1777 249.408 76.1724 249.414 76.1668L250.316 75.2653C250.462 75.1188 250.462 74.8814 250.316 74.7349L245.543 69.962C245.396 69.8155 245.159 69.8155 245.012 69.962L244.111 70.8635C243.964 71.01 243.964 71.2474 244.111 71.3939L247.663 74.9466Z" fill="#F5F5F5" fill-opacity="0.5" shape-rendering="crispEdges"/>
</g>
<g filter="url(#filter9_d_326_4463)">
<path fill-rule="evenodd" clip-rule="evenodd" d="M23.4995 112C23.2234 112 22.9995 112.224 22.9995 112.5V125.5C22.9995 125.776 23.2234 126 23.4995 126H40.4995C40.7757 126 40.9995 125.776 40.9995 125.5V112.5C40.9995 112.224 40.7757 112 40.4995 112H23.4995ZM26.4999 123C26.2238 123 25.9999 122.776 25.9999 122.5V115.5C25.9999 115.224 26.2238 115 26.4999 115H30.4999C30.7761 115 30.9999 115.224 30.9999 115.5V116.5C30.9999 116.776 30.7761 117 30.4999 117H28.0999C28.0447 117 27.9999 117.045 27.9999 117.1V120.9C27.9999 120.955 28.0447 121 28.0999 121H30.4999C30.7761 121 30.9999 121.224 30.9999 121.5V122.5C30.9999 122.776 30.7761 123 30.4999 123H26.4999ZM33.4999 123C33.2238 123 32.9999 122.776 32.9999 122.5V115.5C32.9999 115.224 33.2238 115 33.4999 115H37.4999C37.7761 115 37.9999 115.224 37.9999 115.5V116.5C37.9999 116.776 37.7761 117 37.4999 117H35.0999C35.0447 117 34.9999 117.045 34.9999 117.1V120.9C34.9999 120.955 35.0447 121 35.0999 121H37.4999C37.7761 121 37.9999 121.224 37.9999 121.5V122.5C37.9999 122.776 37.7761 123 37.4999 123H33.4999Z" fill="#F5F5F5"/>
</g>
<g filter="url(#filter10_d_326_4463)">
<path d="M61.625 115.92C61.5644 115.383 61.3144 114.966 60.875 114.67C60.4356 114.371 59.8826 114.222 59.2159 114.222C58.7386 114.222 58.3258 114.297 57.9773 114.449C57.6288 114.597 57.358 114.801 57.1648 115.062C56.9754 115.32 56.8807 115.614 56.8807 115.943C56.8807 116.22 56.9451 116.458 57.0739 116.659C57.2064 116.86 57.3788 117.028 57.5909 117.165C57.8068 117.297 58.0379 117.409 58.2841 117.5C58.5303 117.587 58.767 117.659 58.9943 117.716L60.1307 118.011C60.5019 118.102 60.8826 118.225 61.2727 118.381C61.6629 118.536 62.0246 118.741 62.358 118.994C62.6913 119.248 62.9602 119.562 63.1648 119.938C63.3731 120.312 63.4773 120.761 63.4773 121.284C63.4773 121.943 63.3068 122.528 62.9659 123.04C62.6288 123.551 62.1383 123.955 61.4943 124.25C60.8542 124.545 60.0795 124.693 59.1705 124.693C58.2992 124.693 57.5455 124.555 56.9091 124.278C56.2727 124.002 55.7746 123.61 55.4148 123.102C55.0549 122.591 54.8561 121.985 54.8182 121.284H56.5795C56.6136 121.705 56.75 122.055 56.9886 122.335C57.2311 122.612 57.5398 122.818 57.9148 122.955C58.2936 123.087 58.7083 123.153 59.1591 123.153C59.6553 123.153 60.0966 123.076 60.483 122.92C60.8731 122.761 61.1799 122.542 61.4034 122.261C61.6269 121.977 61.7386 121.646 61.7386 121.267C61.7386 120.922 61.6402 120.64 61.4432 120.42C61.25 120.201 60.9867 120.019 60.6534 119.875C60.3239 119.731 59.9508 119.604 59.5341 119.494L58.1591 119.119C57.2273 118.866 56.4886 118.492 55.9432 118C55.4015 117.508 55.1307 116.856 55.1307 116.045C55.1307 115.375 55.3125 114.79 55.6761 114.29C56.0398 113.79 56.5322 113.402 57.1534 113.125C57.7746 112.845 58.4754 112.705 59.2557 112.705C60.0436 112.705 60.7386 112.843 61.3409 113.119C61.947 113.396 62.4242 113.777 62.7727 114.261C63.1212 114.742 63.303 115.295 63.3182 115.92H61.625ZM71.0953 120.881V115.773H72.7999V124.5H71.1294V122.989H71.0385C70.8378 123.455 70.5158 123.843 70.0726 124.153C69.6332 124.46 69.0859 124.614 68.4306 124.614C67.87 124.614 67.3737 124.491 66.9419 124.244C66.5139 123.994 66.1768 123.625 65.9306 123.136C65.6881 122.648 65.5669 122.044 65.5669 121.324V115.773H67.2658V121.119C67.2658 121.714 67.4306 122.187 67.7601 122.54C68.0896 122.892 68.5177 123.068 69.0442 123.068C69.3624 123.068 69.6787 122.989 69.9931 122.83C70.3112 122.67 70.5745 122.43 70.7828 122.108C70.995 121.786 71.0991 121.377 71.0953 120.881ZM75.3469 124.5V112.864H77.0458V117.188H77.148C77.2465 117.006 77.3886 116.795 77.5742 116.557C77.7598 116.318 78.0174 116.11 78.3469 115.932C78.6765 115.75 79.1121 115.659 79.6537 115.659C80.3583 115.659 80.9871 115.837 81.5401 116.193C82.0931 116.549 82.5268 117.062 82.8412 117.733C83.1594 118.403 83.3185 119.21 83.3185 120.153C83.3185 121.097 83.1613 121.905 82.8469 122.58C82.5325 123.25 82.1007 123.767 81.5515 124.131C81.0022 124.491 80.3753 124.67 79.6708 124.67C79.1405 124.67 78.7068 124.581 78.3696 124.403C78.0363 124.225 77.7749 124.017 77.5855 123.778C77.3962 123.54 77.2503 123.328 77.148 123.142H77.006V124.5H75.3469ZM77.0117 120.136C77.0117 120.75 77.1007 121.288 77.2787 121.75C77.4568 122.212 77.7143 122.574 78.0515 122.835C78.3886 123.093 78.8015 123.222 79.2901 123.222C79.7977 123.222 80.2219 123.087 80.5628 122.818C80.9037 122.545 81.1613 122.176 81.3355 121.71C81.5136 121.244 81.6026 120.72 81.6026 120.136C81.6026 119.561 81.5155 119.044 81.3412 118.585C81.1708 118.127 80.9132 117.765 80.5685 117.5C80.2276 117.235 79.8015 117.102 79.2901 117.102C78.7977 117.102 78.381 117.229 78.0401 117.483C77.703 117.737 77.4473 118.091 77.273 118.545C77.0988 119 77.0117 119.53 77.0117 120.136ZM89.428 115.773V117.136H84.661V115.773H89.428ZM85.9394 113.682H87.6383V121.938C87.6383 122.267 87.6875 122.515 87.786 122.682C87.8845 122.845 88.0114 122.956 88.1667 123.017C88.3258 123.074 88.4981 123.102 88.6837 123.102C88.8201 123.102 88.9394 123.093 89.0417 123.074C89.1439 123.055 89.2235 123.04 89.2803 123.028L89.5871 124.432C89.4886 124.47 89.3485 124.508 89.1667 124.545C88.9849 124.587 88.7576 124.61 88.4849 124.614C88.0379 124.621 87.6212 124.542 87.2349 124.375C86.8485 124.208 86.536 123.951 86.2974 123.602C86.0587 123.254 85.9394 122.816 85.9394 122.29V113.682ZM91.4353 124.5V115.773H93.1342V124.5H91.4353ZM92.2933 114.426C91.9978 114.426 91.744 114.328 91.5319 114.131C91.3236 113.93 91.2194 113.691 91.2194 113.415C91.2194 113.134 91.3236 112.896 91.5319 112.699C91.744 112.498 91.9978 112.398 92.2933 112.398C92.5887 112.398 92.8406 112.498 93.0489 112.699C93.2611 112.896 93.3671 113.134 93.3671 113.415C93.3671 113.691 93.2611 113.93 93.0489 114.131C92.8406 114.328 92.5887 114.426 92.2933 114.426ZM99.6215 115.773V117.136H94.8545V115.773H99.6215ZM96.1329 113.682H97.8318V121.938C97.8318 122.267 97.881 122.515 97.9795 122.682C98.078 122.845 98.2049 122.956 98.3602 123.017C98.5193 123.074 98.6916 123.102 98.8772 123.102C99.0136 123.102 99.1329 123.093 99.2352 123.074C99.3374 123.055 99.417 123.04 99.4738 123.028L99.7806 124.432C99.6821 124.47 99.542 124.508 99.3602 124.545C99.1784 124.587 98.9511 124.61 98.6784 124.614C98.2314 124.621 97.8147 124.542 97.4284 124.375C97.042 124.208 96.7295 123.951 96.4909 123.602C96.2522 123.254 96.1329 122.816 96.1329 122.29V113.682ZM103.515 112.864V124.5H101.816V112.864H103.515ZM109.69 124.676C108.83 124.676 108.09 124.492 107.468 124.125C106.851 123.754 106.374 123.233 106.037 122.562C105.703 121.888 105.537 121.098 105.537 120.193C105.537 119.299 105.703 118.511 106.037 117.83C106.374 117.148 106.843 116.616 107.446 116.233C108.052 115.85 108.76 115.659 109.571 115.659C110.063 115.659 110.54 115.741 111.003 115.903C111.465 116.066 111.879 116.322 112.247 116.67C112.614 117.019 112.904 117.472 113.116 118.028C113.328 118.581 113.434 119.254 113.434 120.045V120.648H106.497V119.375H111.77C111.77 118.928 111.679 118.532 111.497 118.188C111.315 117.839 111.059 117.564 110.73 117.364C110.404 117.163 110.021 117.062 109.582 117.062C109.105 117.062 108.688 117.18 108.332 117.415C107.98 117.646 107.707 117.949 107.514 118.324C107.325 118.695 107.23 119.098 107.23 119.534V120.528C107.23 121.112 107.332 121.608 107.537 122.017C107.745 122.426 108.035 122.739 108.406 122.955C108.777 123.167 109.211 123.273 109.707 123.273C110.029 123.273 110.323 123.227 110.588 123.136C110.853 123.042 111.082 122.902 111.275 122.716C111.468 122.53 111.616 122.301 111.718 122.028L113.326 122.318C113.198 122.792 112.967 123.206 112.633 123.562C112.304 123.915 111.889 124.189 111.389 124.386C110.893 124.58 110.326 124.676 109.69 124.676ZM121.987 117.903L120.447 118.176C120.383 117.979 120.281 117.792 120.14 117.614C120.004 117.436 119.819 117.29 119.584 117.176C119.349 117.062 119.055 117.006 118.703 117.006C118.222 117.006 117.82 117.114 117.498 117.33C117.176 117.542 117.015 117.816 117.015 118.153C117.015 118.445 117.123 118.68 117.339 118.858C117.555 119.036 117.904 119.182 118.385 119.295L119.771 119.614C120.574 119.799 121.173 120.085 121.567 120.472C121.961 120.858 122.158 121.36 122.158 121.977C122.158 122.5 122.006 122.966 121.703 123.375C121.404 123.78 120.985 124.098 120.447 124.33C119.913 124.561 119.294 124.676 118.589 124.676C117.612 124.676 116.815 124.468 116.197 124.051C115.58 123.631 115.201 123.034 115.061 122.261L116.703 122.011C116.805 122.439 117.015 122.763 117.334 122.983C117.652 123.199 118.067 123.307 118.578 123.307C119.135 123.307 119.58 123.191 119.913 122.96C120.247 122.725 120.413 122.439 120.413 122.102C120.413 121.83 120.311 121.6 120.106 121.415C119.906 121.229 119.597 121.089 119.18 120.994L117.703 120.67C116.889 120.485 116.286 120.189 115.896 119.784C115.51 119.379 115.317 118.866 115.317 118.244C115.317 117.729 115.461 117.278 115.748 116.892C116.036 116.506 116.434 116.205 116.942 115.989C117.449 115.769 118.031 115.659 118.686 115.659C119.629 115.659 120.372 115.864 120.913 116.273C121.455 116.678 121.813 117.222 121.987 117.903Z" fill="#F5F5F5"/>
</g>
<g filter="url(#filter11_d_326_4463)">
<path d="M199.278 124.5V112.864H206.574V114.375H201.034V117.92H206.193V119.426H201.034V122.989H206.642V124.5H199.278ZM210.61 119.318V124.5H208.911V115.773H210.541V117.193H210.649C210.85 116.731 211.164 116.36 211.592 116.08C212.024 115.799 212.568 115.659 213.223 115.659C213.818 115.659 214.339 115.784 214.786 116.034C215.233 116.28 215.579 116.648 215.825 117.136C216.072 117.625 216.195 118.229 216.195 118.949V124.5H214.496V119.153C214.496 118.521 214.331 118.027 214.002 117.67C213.672 117.311 213.219 117.131 212.644 117.131C212.25 117.131 211.899 117.216 211.592 117.386C211.289 117.557 211.049 117.807 210.871 118.136C210.697 118.462 210.61 118.856 210.61 119.318ZM222.26 127.955C221.567 127.955 220.97 127.864 220.47 127.682C219.974 127.5 219.569 127.259 219.255 126.96C218.94 126.661 218.705 126.333 218.55 125.977L220.01 125.375C220.113 125.542 220.249 125.718 220.419 125.903C220.594 126.093 220.828 126.254 221.124 126.386C221.423 126.519 221.808 126.585 222.277 126.585C222.921 126.585 223.453 126.428 223.874 126.114C224.294 125.803 224.505 125.307 224.505 124.625V122.909H224.397C224.294 123.095 224.147 123.301 223.953 123.528C223.764 123.756 223.503 123.953 223.169 124.119C222.836 124.286 222.402 124.369 221.868 124.369C221.179 124.369 220.558 124.208 220.005 123.886C219.455 123.561 219.02 123.081 218.698 122.449C218.38 121.812 218.22 121.03 218.22 120.102C218.22 119.174 218.378 118.379 218.692 117.716C219.01 117.053 219.446 116.545 219.999 116.193C220.552 115.837 221.179 115.659 221.88 115.659C222.421 115.659 222.859 115.75 223.192 115.932C223.525 116.11 223.785 116.318 223.97 116.557C224.16 116.795 224.306 117.006 224.408 117.188H224.533V115.773H226.198V124.693C226.198 125.443 226.024 126.059 225.675 126.54C225.327 127.021 224.855 127.377 224.26 127.608C223.669 127.839 223.003 127.955 222.26 127.955ZM222.243 122.96C222.732 122.96 223.145 122.847 223.482 122.619C223.823 122.388 224.08 122.059 224.255 121.631C224.433 121.199 224.522 120.682 224.522 120.08C224.522 119.492 224.435 118.975 224.26 118.528C224.086 118.081 223.83 117.733 223.493 117.483C223.156 117.229 222.739 117.102 222.243 117.102C221.732 117.102 221.306 117.235 220.965 117.5C220.624 117.761 220.366 118.117 220.192 118.568C220.022 119.019 219.936 119.523 219.936 120.08C219.936 120.652 220.024 121.153 220.198 121.585C220.372 122.017 220.63 122.354 220.97 122.597C221.315 122.839 221.739 122.96 222.243 122.96Z" fill="#F5F5F5" fill-opacity="0.5" shape-rendering="crispEdges"/>
</g>
<g filter="url(#filter12_d_326_4463)">
<path d="M247.663 118.947C247.693 118.976 247.693 119.023 247.663 119.053L244.11 122.606C243.963 122.753 243.963 122.99 244.11 123.137L245.011 124.038C245.158 124.185 245.395 124.185 245.542 124.038L249.397 120.183C249.403 120.178 249.408 120.172 249.414 120.167L250.316 119.265C250.462 119.119 250.462 118.881 250.316 118.735L245.543 113.962C245.396 113.816 245.159 113.816 245.012 113.962L244.111 114.864C243.964 115.01 243.964 115.247 244.111 115.394L247.663 118.947Z" fill="#F5F5F5" fill-opacity="0.5" shape-rendering="crispEdges"/>
</g>
</g>
<defs>
<filter id="filter0_bd_326_4463" x="-4" y="-4" width="284" height="158" filterUnits="userSpaceOnUse" color-interpolation-filters="sRGB">
<feFlood flood-opacity="0" result="BackgroundImageFix"/>
<feGaussianBlur in="BackgroundImageFix" stdDeviation="2"/>
<feComposite in2="SourceAlpha" operator="in" result="effect1_backgroundBlur_326_4463"/>
<feColorMatrix in="SourceAlpha" type="matrix" values="0 0 0 0 0 0 0 0 0 0 0 0 0 0 0 0 0 0 127 0" result="hardAlpha"/>
<feOffset dx="1" dy="1"/>
<feGaussianBlur stdDeviation="0.5"/>
<feComposite in2="hardAlpha" operator="out"/>
<feColorMatrix type="matrix" values="0 0 0 0 0.0392157 0 0 0 0 0.0392157 0 0 0 0 0.0392157 0 0 0 0.04 0"/>
<feBlend mode="normal" in2="effect1_backgroundBlur_326_4463" result="effect2_dropShadow_326_4463"/>
<feBlend mode="normal" in="SourceGraphic" in2="effect2_dropShadow_326_4463" result="shape"/>
</filter>
<filter id="filter1_d_326_4463" x="23" y="23" width="20" height="17" filterUnits="userSpaceOnUse" color-interpolation-filters="sRGB">
<feFlood flood-opacity="0" result="BackgroundImageFix"/>
<feColorMatrix in="SourceAlpha" type="matrix" values="0 0 0 0 0 0 0 0 0 0 0 0 0 0 0 0 0 0 127 0" result="hardAlpha"/>
<feOffset dx="1" dy="1"/>
<feGaussianBlur stdDeviation="0.5"/>
<feComposite in2="hardAlpha" operator="out"/>
<feColorMatrix type="matrix" values="0 0 0 0 0.0392157 0 0 0 0 0.0392157 0 0 0 0 0.0392157 0 0 0 0.04 0"/>
<feBlend mode="normal" in2="BackgroundImageFix" result="effect1_dropShadow_326_4463"/>
<feBlend mode="normal" in="SourceGraphic" in2="effect1_dropShadow_326_4463" result="shape"/>
</filter>
<filter id="filter2_d_326_4463" x="54.8181" y="24.7046" width="49.3799" height="17.0681" filterUnits="userSpaceOnUse" color-interpolation-filters="sRGB">
<feFlood flood-opacity="0" result="BackgroundImageFix"/>
<feColorMatrix in="SourceAlpha" type="matrix" values="0 0 0 0 0 0 0 0 0 0 0 0 0 0 0 0 0 0 127 0" result="hardAlpha"/>
<feOffset dx="1" dy="1"/>
<feGaussianBlur stdDeviation="0.5"/>
<feComposite in2="hardAlpha" operator="out"/>
<feColorMatrix type="matrix" values="0 0 0 0 0.0392157 0 0 0 0 0.0392157 0 0 0 0 0.0392157 0 0 0 0.04 0"/>
<feBlend mode="normal" in2="BackgroundImageFix" result="effect1_dropShadow_326_4463"/>
<feBlend mode="normal" in="SourceGraphic" in2="effect1_dropShadow_326_4463" result="shape"/>
</filter>
<filter id="filter3_d_326_4463" x="211.92" y="24.8635" width="17.0029" height="13.6365" filterUnits="userSpaceOnUse" color-interpolation-filters="sRGB">
<feFlood flood-opacity="0" result="BackgroundImageFix"/>
<feColorMatrix in="SourceAlpha" type="matrix" values="0 0 0 0 0 0 0 0 0 0 0 0 0 0 0 0 0 0 127 0" result="hardAlpha"/>
<feOffset dx="1" dy="1"/>
<feGaussianBlur stdDeviation="0.5"/>
<feComposite in2="hardAlpha" operator="out"/>
<feColorMatrix type="matrix" values="0 0 0 0 0.0392157 0 0 0 0 0.0392157 0 0 0 0 0.0392157 0 0 0 0.04 0"/>
<feBlend mode="normal" in2="BackgroundImageFix" result="effect1_dropShadow_326_4463"/>
<feBlend mode="normal" in="SourceGraphic" in2="effect1_dropShadow_326_4463" result="shape"/>
</filter>
<filter id="filter4_d_326_4463" x="244" y="25.8521" width="8.42529" height="12.2959" filterUnits="userSpaceOnUse" color-interpolation-filters="sRGB">
<feFlood flood-opacity="0" result="BackgroundImageFix"/>
<feColorMatrix in="SourceAlpha" type="matrix" values="0 0 0 0 0 0 0 0 0 0 0 0 0 0 0 0 0 0 127 0" result="hardAlpha"/>
<feOffset dx="1" dy="1"/>
<feGaussianBlur stdDeviation="0.5"/>
<feComposite in2="hardAlpha" operator="out"/>
<feColorMatrix type="matrix" values="0 0 0 0 0.0392157 0 0 0 0 0.0392157 0 0 0 0 0.0392157 0 0 0 0.04 0"/>
<feBlend mode="normal" in2="BackgroundImageFix" result="effect1_dropShadow_326_4463"/>
<feBlend mode="normal" in="SourceGraphic" in2="effect1_dropShadow_326_4463" result="shape"/>
</filter>
<filter id="filter5_d_326_4463" x="24" y="67" width="18" height="18" filterUnits="userSpaceOnUse" color-interpolation-filters="sRGB">
<feFlood flood-opacity="0" result="BackgroundImageFix"/>
<feColorMatrix in="SourceAlpha" type="matrix" values="0 0 0 0 0 0 0 0 0 0 0 0 0 0 0 0 0 0 127 0" result="hardAlpha"/>
<feOffset dx="1" dy="1"/>
<feGaussianBlur stdDeviation="0.5"/>
<feComposite in2="hardAlpha" operator="out"/>
<feColorMatrix type="matrix" values="0 0 0 0 0.0392157 0 0 0 0 0.0392157 0 0 0 0 0.0392157 0 0 0 0.04 0"/>
<feBlend mode="normal" in2="BackgroundImageFix" result="effect1_dropShadow_326_4463"/>
<feBlend mode="normal" in="SourceGraphic" in2="effect1_dropShadow_326_4463" result="shape"/>
</filter>
<filter id="filter6_d_326_4463" x="54.9033" y="68.3977" width="55.3164" height="17.375" filterUnits="userSpaceOnUse" color-interpolation-filters="sRGB">
<feFlood flood-opacity="0" result="BackgroundImageFix"/>
<feColorMatrix in="SourceAlpha" type="matrix" values="0 0 0 0 0 0 0 0 0 0 0 0 0 0 0 0 0 0 127 0" result="hardAlpha"/>
<feOffset dx="1" dy="1"/>
<feGaussianBlur stdDeviation="0.5"/>
<feComposite in2="hardAlpha" operator="out"/>
<feColorMatrix type="matrix" values="0 0 0 0 0.0392157 0 0 0 0 0.0392157 0 0 0 0 0.0392157 0 0 0 0.04 0"/>
<feBlend mode="normal" in2="BackgroundImageFix" result="effect1_dropShadow_326_4463"/>
<feBlend mode="normal" in="SourceGraphic" in2="effect1_dropShadow_326_4463" result="shape"/>
</filter>
<filter id="filter7_d_326_4463" x="179.92" y="68.7046" width="49.0334" height="17.0681" filterUnits="userSpaceOnUse" color-interpolation-filters="sRGB">
<feFlood flood-opacity="0" result="BackgroundImageFix"/>
<feColorMatrix in="SourceAlpha" type="matrix" values="0 0 0 0 0 0 0 0 0 0 0 0 0 0 0 0 0 0 127 0" result="hardAlpha"/>
<feOffset dx="1" dy="1"/>
<feGaussianBlur stdDeviation="0.5"/>
<feComposite in2="hardAlpha" operator="out"/>
<feColorMatrix type="matrix" values="0 0 0 0 0.0392157 0 0 0 0 0.0392157 0 0 0 0 0.0392157 0 0 0 0.04 0"/>
<feBlend mode="normal" in2="BackgroundImageFix" result="effect1_dropShadow_326_4463"/>
<feBlend mode="normal" in="SourceGraphic" in2="effect1_dropShadow_326_4463" result="shape"/>
</filter>
<filter id="filter8_d_326_4463" x="244" y="69.8521" width="8.42529" height="12.2959" filterUnits="userSpaceOnUse" color-interpolation-filters="sRGB">
<feFlood flood-opacity="0" result="BackgroundImageFix"/>
<feColorMatrix in="SourceAlpha" type="matrix" values="0 0 0 0 0 0 0 0 0 0 0 0 0 0 0 0 0 0 127 0" result="hardAlpha"/>
<feOffset dx="1" dy="1"/>
<feGaussianBlur stdDeviation="0.5"/>
<feComposite in2="hardAlpha" operator="out"/>
<feColorMatrix type="matrix" values="0 0 0 0 0.0392157 0 0 0 0 0.0392157 0 0 0 0 0.0392157 0 0 0 0.04 0"/>
<feBlend mode="normal" in2="BackgroundImageFix" result="effect1_dropShadow_326_4463"/>
<feBlend mode="normal" in="SourceGraphic" in2="effect1_dropShadow_326_4463" result="shape"/>
</filter>
<filter id="filter9_d_326_4463" x="22.9995" y="112" width="20" height="16" filterUnits="userSpaceOnUse" color-interpolation-filters="sRGB">
<feFlood flood-opacity="0" result="BackgroundImageFix"/>
<feColorMatrix in="SourceAlpha" type="matrix" values="0 0 0 0 0 0 0 0 0 0 0 0 0 0 0 0 0 0 127 0" result="hardAlpha"/>
<feOffset dx="1" dy="1"/>
<feGaussianBlur stdDeviation="0.5"/>
<feComposite in2="hardAlpha" operator="out"/>
<feColorMatrix type="matrix" values="0 0 0 0 0.0392157 0 0 0 0 0.0392157 0 0 0 0 0.0392157 0 0 0 0.04 0"/>
<feBlend mode="normal" in2="BackgroundImageFix" result="effect1_dropShadow_326_4463"/>
<feBlend mode="normal" in="SourceGraphic" in2="effect1_dropShadow_326_4463" result="shape"/>
</filter>
<filter id="filter10_d_326_4463" x="54.8181" y="112.398" width="69.3394" height="14.2954" filterUnits="userSpaceOnUse" color-interpolation-filters="sRGB">
<feFlood flood-opacity="0" result="BackgroundImageFix"/>
<feColorMatrix in="SourceAlpha" type="matrix" values="0 0 0 0 0 0 0 0 0 0 0 0 0 0 0 0 0 0 127 0" result="hardAlpha"/>
<feOffset dx="1" dy="1"/>
<feGaussianBlur stdDeviation="0.5"/>
<feComposite in2="hardAlpha" operator="out"/>
<feColorMatrix type="matrix" values="0 0 0 0 0.0392157 0 0 0 0 0.0392157 0 0 0 0 0.0392157 0 0 0 0.04 0"/>
<feBlend mode="normal" in2="BackgroundImageFix" result="effect1_dropShadow_326_4463"/>
<feBlend mode="normal" in="SourceGraphic" in2="effect1_dropShadow_326_4463" result="shape"/>
</filter>
<filter id="filter11_d_326_4463" x="199.278" y="112.864" width="28.9194" height="17.0911" filterUnits="userSpaceOnUse" color-interpolation-filters="sRGB">
<feFlood flood-opacity="0" result="BackgroundImageFix"/>
<feColorMatrix in="SourceAlpha" type="matrix" values="0 0 0 0 0 0 0 0 0 0 0 0 0 0 0 0 0 0 127 0" result="hardAlpha"/>
<feOffset dx="1" dy="1"/>
<feGaussianBlur stdDeviation="0.5"/>
<feComposite in2="hardAlpha" operator="out"/>
<feColorMatrix type="matrix" values="0 0 0 0 0.0392157 0 0 0 0 0.0392157 0 0 0 0 0.0392157 0 0 0 0.04 0"/>
<feBlend mode="normal" in2="BackgroundImageFix" result="effect1_dropShadow_326_4463"/>
<feBlend mode="normal" in="SourceGraphic" in2="effect1_dropShadow_326_4463" result="shape"/>
</filter>
<filter id="filter12_d_326_4463" x="244" y="113.852" width="8.42529" height="12.2959" filterUnits="userSpaceOnUse" color-interpolation-filters="sRGB">
<feFlood flood-opacity="0" result="BackgroundImageFix"/>
<feColorMatrix in="SourceAlpha" type="matrix" values="0 0 0 0 0 0 0 0 0 0 0 0 0 0 0 0 0 0 127 0" result="hardAlpha"/>
<feOffset dx="1" dy="1"/>
<feGaussianBlur stdDeviation="0.5"/>
<feComposite in2="hardAlpha" operator="out"/>
<feColorMatrix type="matrix" values="0 0 0 0 0.0392157 0 0 0 0 0.0392157 0 0 0 0 0.0392157 0 0 0 0.04 0"/>
<feBlend mode="normal" in2="BackgroundImageFix" result="effect1_dropShadow_326_4463"/>
<feBlend mode="normal" in="SourceGraphic" in2="effect1_dropShadow_326_4463" result="shape"/>
</filter>
</defs>
</svg>
