<svg width="48" height="48" viewBox="0 0 48 48" fill="none" xmlns="http://www.w3.org/2000/svg">
<rect width="48" height="48" rx="8" fill="#F5F5F5" fill-opacity="0.08"/>
<g filter="url(#filter0_d_326_4418)">
<path fill-rule="evenodd" clip-rule="evenodd" d="M21.5722 13.3333C21.2428 13.3333 20.9628 13.5737 20.9131 13.8993L20.4063 17.2191C20.4 17.2605 20.3745 17.2965 20.3378 17.3166C20.2386 17.3711 20.1408 17.4277 20.0444 17.4864C20.0086 17.5082 19.9646 17.5123 19.9255 17.4971L16.7957 16.2768C16.4889 16.1572 16.1408 16.2795 15.9762 16.5646L13.5491 20.7685C13.3844 21.0537 13.4527 21.4164 13.7098 21.6223L16.3331 23.7224C16.3658 23.7486 16.3842 23.7887 16.3833 23.8306C16.3821 23.8866 16.3814 23.9428 16.3814 23.9992C16.3814 24.0557 16.3821 24.1121 16.3833 24.1683C16.3842 24.2102 16.3658 24.2502 16.3331 24.2764L13.7103 26.3777C13.4533 26.5835 13.3851 26.9462 13.5497 27.2313L15.9768 31.4352C16.1415 31.7204 16.4898 31.8426 16.7966 31.7229L19.9259 30.5016C19.965 30.4863 20.009 30.4904 20.0449 30.5122C20.1411 30.5708 20.2388 30.6273 20.3378 30.6817C20.3745 30.7019 20.4 30.7378 20.4063 30.7792L20.9131 34.0992C20.9628 34.4248 21.2428 34.6653 21.5722 34.6653H26.4264C26.7556 34.6653 27.0356 34.4249 27.0854 34.0995L27.5933 30.78C27.5997 30.7386 27.6251 30.7026 27.6618 30.6825C27.7614 30.6278 27.8596 30.571 27.9564 30.5121C27.9922 30.4902 28.0362 30.4861 28.0753 30.5014L31.2034 31.7222C31.5102 31.842 31.8585 31.7197 32.0232 31.4345L34.4503 27.2307C34.6149 26.9455 34.5467 26.5829 34.2897 26.377L31.6679 24.2765C31.6352 24.2503 31.6168 24.2103 31.6177 24.1684C31.6189 24.1122 31.6195 24.0557 31.6195 23.9992C31.6195 23.9428 31.6189 23.8865 31.6177 23.8304C31.6168 23.7885 31.6352 23.7485 31.6679 23.7223L34.2902 21.6229C34.5473 21.4171 34.6156 21.0544 34.4509 20.7691L32.0238 16.5653C31.8592 16.2802 31.5111 16.1579 31.2043 16.2775L28.0758 17.4973C28.0367 17.5125 27.9927 17.5084 27.9568 17.4866C27.8599 17.4275 27.7615 17.3706 27.6618 17.3159C27.6251 17.2957 27.5996 17.2598 27.5933 17.2184L27.0854 13.8991C27.0356 13.5736 26.7556 13.3333 26.4264 13.3333H21.5722ZM24 28.2853C26.3672 28.2853 28.2861 26.3664 28.2861 23.9992C28.2861 21.6321 26.3672 19.7131 24 19.7131C21.6329 19.7131 19.7139 21.6321 19.7139 23.9992C19.7139 26.3664 21.6329 28.2853 24 28.2853Z" fill="#F5F5F5"/>
</g>
<defs>
<filter id="filter0_d_326_4418" x="13.4597" y="13.3333" width="23.0806" height="23.332" filterUnits="userSpaceOnUse" color-interpolation-filters="sRGB">
<feFlood flood-opacity="0" result="BackgroundImageFix"/>
<feColorMatrix in="SourceAlpha" type="matrix" values="0 0 0 0 0 0 0 0 0 0 0 0 0 0 0 0 0 0 127 0" result="hardAlpha"/>
<feOffset dx="1" dy="1"/>
<feGaussianBlur stdDeviation="0.5"/>
<feComposite in2="hardAlpha" operator="out"/>
<feColorMatrix type="matrix" values="0 0 0 0 0.0392157 0 0 0 0 0.0392157 0 0 0 0 0.0392157 0 0 0 0.04 0"/>
<feBlend mode="normal" in2="BackgroundImageFix" result="effect1_dropShadow_326_4418"/>
<feBlend mode="normal" in="SourceGraphic" in2="effect1_dropShadow_326_4418" result="shape"/>
</filter>
</defs>
</svg>
