<svg width="48" height="48" viewBox="0 0 48 48" fill="none" xmlns="http://www.w3.org/2000/svg">
<g filter="url(#filter0_d_326_2546)">
<path d="M16.6672 14.6667C16.299 14.6667 16.0005 14.9652 16.0005 15.3334V32.6667C16.0005 33.0349 16.299 33.3334 16.6672 33.3334H20.6672C21.0353 33.3334 21.3338 33.0349 21.3338 32.6667V15.3334C21.3338 14.9652 21.0353 14.6667 20.6672 14.6667H16.6672Z" fill="#F5F5F5"/>
<path d="M27.3338 14.6667C26.9656 14.6667 26.6672 14.9652 26.6672 15.3334V32.6667C26.6672 33.0349 26.9656 33.3334 27.3338 33.3334H31.3338C31.702 33.3334 32.0005 33.0349 32.0005 32.6667V15.3334C32.0005 14.9652 31.702 14.6667 31.3338 14.6667H27.3338Z" fill="#F5F5F5"/>
</g>
<defs>
<filter id="filter0_d_326_2546" x="16.0005" y="14.6667" width="18" height="20.6667" filterUnits="userSpaceOnUse" color-interpolation-filters="sRGB">
<feFlood flood-opacity="0" result="BackgroundImageFix"/>
<feColorMatrix in="SourceAlpha" type="matrix" values="0 0 0 0 0 0 0 0 0 0 0 0 0 0 0 0 0 0 127 0" result="hardAlpha"/>
<feOffset dx="1" dy="1"/>
<feGaussianBlur stdDeviation="0.5"/>
<feComposite in2="hardAlpha" operator="out"/>
<feColorMatrix type="matrix" values="0 0 0 0 0.0392157 0 0 0 0 0.0392157 0 0 0 0 0.0392157 0 0 0 0.04 0"/>
<feBlend mode="normal" in2="BackgroundImageFix" result="effect1_dropShadow_326_2546"/>
<feBlend mode="normal" in="SourceGraphic" in2="effect1_dropShadow_326_2546" result="shape"/>
</filter>
</defs>
</svg>
