<svg width="278" height="287" viewBox="0 0 278 287" fill="none" xmlns="http://www.w3.org/2000/svg">
<g filter="url(#filter0_bd_326_4511)">
<rect width="276" height="285" rx="12" fill="#0A0A0A" fill-opacity="0.8" shape-rendering="crispEdges"/>
<g filter="url(#filter1_d_326_4511)">
<path d="M30.1892 30.9345C30.1534 30.9703 30.1534 31.0284 30.1892 31.0642L34.5325 35.4074C34.7115 35.5864 34.7115 35.8766 34.5325 36.0556L33.4306 37.1575C33.2516 37.3365 32.9614 37.3365 32.7824 37.1575L28.0704 32.4455C28.0633 32.4392 28.0564 32.4327 28.0496 32.426L26.9477 31.3241C26.7687 31.1451 26.7687 30.8549 26.9477 30.6759L32.7814 24.8423C32.9603 24.6633 33.2505 24.6633 33.4295 24.8423L34.5314 25.9442C34.7104 26.1231 34.7104 26.4133 34.5314 26.5923L30.1892 30.9345Z" fill="#F5F5F5"/>
</g>
<g filter="url(#filter2_d_326_4511)">
<path d="M57.5568 32.7273H59.2841L60.5 34.3125L61.0739 35.017L63.0114 37.5455H61.2159L59.9205 35.858L59.4773 35.2443L57.5568 32.7273ZM63.3864 30.6818C63.3864 31.9242 63.1591 32.9924 62.7045 33.8864C62.25 34.7765 61.6269 35.4621 60.8352 35.9432C60.0473 36.4205 59.1515 36.6591 58.1477 36.6591C57.1402 36.6591 56.2405 36.4205 55.4489 35.9432C54.661 35.4621 54.0398 34.7746 53.5852 33.8807C53.1307 32.9867 52.9034 31.9205 52.9034 30.6818C52.9034 29.4394 53.1307 28.3731 53.5852 27.483C54.0398 26.589 54.661 25.9034 55.4489 25.4261C56.2405 24.9451 57.1402 24.7045 58.1477 24.7045C59.1515 24.7045 60.0473 24.9451 60.8352 25.4261C61.6269 25.9034 62.25 26.589 62.7045 27.483C63.1591 28.3731 63.3864 29.4394 63.3864 30.6818ZM61.6477 30.6818C61.6477 29.7348 61.4943 28.9375 61.1875 28.2898C60.8845 27.6383 60.4678 27.1458 59.9375 26.8125C59.411 26.4754 58.8144 26.3068 58.1477 26.3068C57.4773 26.3068 56.8788 26.4754 56.3523 26.8125C55.8258 27.1458 55.4091 27.6383 55.1023 28.2898C54.7992 28.9375 54.6477 29.7348 54.6477 30.6818C54.6477 31.6288 54.7992 32.428 55.1023 33.0795C55.4091 33.7273 55.8258 34.2197 56.3523 34.5568C56.8788 34.8902 57.4773 35.0568 58.1477 35.0568C58.8144 35.0568 59.411 34.8902 59.9375 34.5568C60.4678 34.2197 60.8845 33.7273 61.1875 33.0795C61.4943 32.428 61.6477 31.6288 61.6477 30.6818ZM71.0953 32.8807V27.7727H72.7999V36.5H71.1294V34.9886H71.0385C70.8378 35.4545 70.5158 35.8428 70.0726 36.1534C69.6332 36.4602 69.0859 36.6136 68.4306 36.6136C67.87 36.6136 67.3737 36.4905 66.9419 36.2443C66.5139 35.9943 66.1768 35.625 65.9306 35.1364C65.6881 34.6477 65.5669 34.0436 65.5669 33.3239V27.7727H67.2658V33.1193C67.2658 33.714 67.4306 34.1875 67.7601 34.5398C68.0896 34.892 68.5177 35.0682 69.0442 35.0682C69.3624 35.0682 69.6787 34.9886 69.9931 34.8295C70.3112 34.6705 70.5745 34.4299 70.7828 34.108C70.995 33.786 71.0991 33.3769 71.0953 32.8807ZM77.7503 36.6932C77.1973 36.6932 76.6973 36.5909 76.2503 36.3864C75.8033 36.178 75.4492 35.8769 75.1878 35.483C74.9302 35.089 74.8015 34.6061 74.8015 34.0341C74.8015 33.5417 74.8962 33.1364 75.0855 32.8182C75.2749 32.5 75.5306 32.2481 75.8526 32.0625C76.1746 31.8769 76.5344 31.7367 76.9321 31.642C77.3299 31.5473 77.7352 31.4754 78.148 31.4261C78.6708 31.3655 79.095 31.3163 79.4208 31.2784C79.7465 31.2367 79.9833 31.1705 80.131 31.0795C80.2787 30.9886 80.3526 30.8409 80.3526 30.6364V30.5966C80.3526 30.1004 80.2124 29.7159 79.9321 29.4432C79.6556 29.1705 79.2427 29.0341 78.6935 29.0341C78.1215 29.0341 77.6708 29.161 77.3412 29.4148C77.0155 29.6648 76.7901 29.9432 76.6651 30.25L75.0685 29.8864C75.2579 29.3561 75.5344 28.928 75.898 28.6023C76.2655 28.2727 76.6878 28.0341 77.1651 27.8864C77.6424 27.7348 78.1443 27.6591 78.6708 27.6591C79.0193 27.6591 79.3886 27.7008 79.7787 27.7841C80.1727 27.8636 80.5401 28.0114 80.881 28.2273C81.2257 28.4432 81.5079 28.7519 81.7276 29.1534C81.9473 29.5511 82.0571 30.0682 82.0571 30.7045V36.5H80.398V35.3068H80.3299C80.22 35.5265 80.0552 35.7424 79.8355 35.9545C79.6158 36.1667 79.3337 36.3428 78.989 36.483C78.6443 36.6231 78.2314 36.6932 77.7503 36.6932ZM78.1196 35.3295C78.5893 35.3295 78.9908 35.2367 79.3242 35.0511C79.6613 34.8655 79.917 34.6231 80.0912 34.3239C80.2693 34.0208 80.3583 33.697 80.3583 33.3523V32.2273C80.2977 32.2879 80.1802 32.3447 80.006 32.3977C79.8355 32.447 79.6405 32.4905 79.4208 32.5284C79.2011 32.5625 78.9871 32.5947 78.7787 32.625C78.5704 32.6515 78.3962 32.6742 78.256 32.6932C77.9265 32.7348 77.6253 32.8049 77.3526 32.9034C77.0837 33.0019 76.8677 33.1439 76.7049 33.3295C76.5458 33.5114 76.4662 33.7538 76.4662 34.0568C76.4662 34.4773 76.6215 34.7955 76.9321 35.0114C77.2427 35.2235 77.6386 35.3295 78.1196 35.3295ZM86.1468 24.8636V36.5H84.4479V24.8636H86.1468ZM88.5603 36.5V27.7727H90.2592V36.5H88.5603ZM89.4183 26.4261C89.1228 26.4261 88.869 26.3277 88.6569 26.1307C88.4486 25.9299 88.3444 25.6913 88.3444 25.4148C88.3444 25.1345 88.4486 24.8958 88.6569 24.6989C88.869 24.4981 89.1228 24.3977 89.4183 24.3977C89.7137 24.3977 89.9656 24.4981 90.1739 24.6989C90.3861 24.8958 90.4921 25.1345 90.4921 25.4148C90.4921 25.6913 90.3861 25.9299 90.1739 26.1307C89.9656 26.3277 89.7137 26.4261 89.4183 26.4261ZM96.7465 27.7727V29.1364H91.9795V27.7727H96.7465ZM93.2579 25.6818H94.9568V33.9375C94.9568 34.267 95.006 34.5152 95.1045 34.6818C95.203 34.8447 95.3299 34.9564 95.4852 35.017C95.6443 35.0739 95.8166 35.1023 96.0022 35.1023C96.1386 35.1023 96.2579 35.0928 96.3602 35.0739C96.4624 35.0549 96.542 35.0398 96.5988 35.0284L96.9056 36.4318C96.8071 36.4697 96.667 36.5076 96.4852 36.5455C96.3034 36.5871 96.0761 36.6098 95.8034 36.6136C95.3564 36.6212 94.9397 36.5417 94.5534 36.375C94.167 36.2083 93.8545 35.9508 93.6159 35.6023C93.3772 35.2538 93.2579 34.8163 93.2579 34.2898V25.6818ZM99.8277 39.7727C99.5739 39.7727 99.3428 39.7519 99.1345 39.7102C98.9261 39.6723 98.7708 39.6307 98.6686 39.5852L99.0777 38.1932C99.3883 38.2765 99.6648 38.3125 99.9072 38.3011C100.15 38.2898 100.364 38.1989 100.549 38.0284C100.739 37.858 100.905 37.5795 101.049 37.1932L101.259 36.6136L98.0663 27.7727H99.8845L102.095 34.5455H102.186L104.396 27.7727H106.22L102.623 37.6648C102.456 38.1193 102.244 38.5038 101.987 38.8182C101.729 39.1364 101.422 39.375 101.066 39.5341C100.71 39.6932 100.297 39.7727 99.8277 39.7727Z" fill="#F5F5F5"/>
</g>
<g filter="url(#filter3_d_326_4511)">
<path d="M212.534 24.8636V36.5H210.773V26.625H210.705L207.92 28.4432V26.7614L210.824 24.8636H212.534ZM219.861 36.6932C218.963 36.6894 218.196 36.4527 217.56 35.983C216.923 35.5133 216.437 34.8295 216.1 33.9318C215.762 33.0341 215.594 31.9527 215.594 30.6875C215.594 29.4261 215.762 28.3485 216.1 27.4545C216.44 26.5606 216.929 25.8788 217.565 25.4091C218.206 24.9394 218.971 24.7045 219.861 24.7045C220.751 24.7045 221.514 24.9413 222.151 25.4148C222.787 25.8845 223.274 26.5663 223.611 27.4602C223.952 28.3504 224.122 29.4261 224.122 30.6875C224.122 31.9564 223.954 33.0398 223.617 33.9375C223.28 34.8314 222.793 35.5152 222.156 35.9886C221.52 36.4583 220.755 36.6932 219.861 36.6932ZM219.861 35.1761C220.649 35.1761 221.264 34.7917 221.708 34.0227C222.155 33.2538 222.378 32.142 222.378 30.6875C222.378 29.7216 222.276 28.9053 222.071 28.2386C221.87 27.5682 221.581 27.0606 221.202 26.7159C220.827 26.3674 220.38 26.1932 219.861 26.1932C219.077 26.1932 218.461 26.5795 218.014 27.3523C217.567 28.125 217.342 29.2367 217.338 30.6875C217.338 31.6572 217.439 32.4773 217.639 33.1477C217.844 33.8144 218.134 34.3201 218.509 34.6648C218.884 35.0057 219.334 35.1761 219.861 35.1761ZM230.198 36.6591C229.383 36.6591 228.664 36.5189 228.039 36.2386C227.417 35.9583 226.931 35.572 226.578 35.0795C226.226 34.5871 226.052 34.0265 226.056 33.3977C226.052 32.9053 226.152 32.4527 226.357 32.0398C226.565 31.6231 226.847 31.2765 227.203 31C227.56 30.7197 227.957 30.5417 228.397 30.4659V30.3977C227.817 30.2576 227.353 29.947 227.005 29.4659C226.656 28.9848 226.484 28.4318 226.488 27.8068C226.484 27.2121 226.641 26.6818 226.959 26.2159C227.281 25.7462 227.722 25.3769 228.283 25.108C228.844 24.839 229.482 24.7045 230.198 24.7045C230.906 24.7045 231.539 24.8409 232.095 25.1136C232.656 25.3826 233.097 25.7519 233.419 26.2216C233.741 26.6875 233.904 27.2159 233.908 27.8068C233.904 28.4318 233.726 28.9848 233.374 29.4659C233.022 29.947 232.563 30.2576 231.999 30.3977V30.4659C232.435 30.5417 232.827 30.7197 233.175 31C233.527 31.2765 233.808 31.6231 234.016 32.0398C234.228 32.4527 234.336 32.9053 234.34 33.3977C234.336 34.0265 234.158 34.5871 233.806 35.0795C233.453 35.572 232.965 35.9583 232.34 36.2386C231.719 36.5189 231.005 36.6591 230.198 36.6591ZM230.198 35.2216C230.679 35.2216 231.095 35.142 231.448 34.983C231.8 34.8201 232.073 34.5947 232.266 34.3068C232.459 34.0152 232.558 33.6742 232.561 33.2841C232.558 32.8788 232.452 32.5208 232.243 32.2102C232.039 31.8996 231.76 31.6553 231.408 31.4773C231.056 31.2992 230.652 31.2102 230.198 31.2102C229.739 31.2102 229.332 31.2992 228.976 31.4773C228.62 31.6553 228.34 31.8996 228.135 32.2102C227.931 32.5208 227.83 32.8788 227.834 33.2841C227.83 33.6742 227.923 34.0152 228.113 34.3068C228.306 34.5947 228.58 34.8201 228.936 34.983C229.292 35.142 229.713 35.2216 230.198 35.2216ZM230.198 29.8068C230.584 29.8068 230.927 29.7292 231.226 29.5739C231.525 29.4186 231.76 29.2027 231.931 28.9261C232.105 28.6496 232.194 28.3258 232.198 27.9545C232.194 27.5909 232.107 27.2727 231.936 27C231.77 26.7273 231.537 26.517 231.238 26.3693C230.938 26.2178 230.592 26.142 230.198 26.142C229.796 26.142 229.444 26.2178 229.141 26.3693C228.842 26.517 228.609 26.7273 228.442 27C228.275 27.2727 228.194 27.5909 228.198 27.9545C228.194 28.3258 228.277 28.6496 228.448 28.9261C228.618 29.2027 228.853 29.4186 229.152 29.5739C229.455 29.7292 229.804 29.8068 230.198 29.8068ZM240.554 36.6932C239.657 36.6894 238.89 36.4527 238.253 35.983C237.617 35.5133 237.13 34.8295 236.793 33.9318C236.456 33.0341 236.287 31.9527 236.287 30.6875C236.287 29.4261 236.456 28.3485 236.793 27.4545C237.134 26.5606 237.623 25.8788 238.259 25.4091C238.899 24.9394 239.664 24.7045 240.554 24.7045C241.445 24.7045 242.208 24.9413 242.844 25.4148C243.481 25.8845 243.967 26.5663 244.304 27.4602C244.645 28.3504 244.816 29.4261 244.816 30.6875C244.816 31.9564 244.647 33.0398 244.31 33.9375C243.973 34.8314 243.486 35.5152 242.85 35.9886C242.214 36.4583 241.448 36.6932 240.554 36.6932ZM240.554 35.1761C241.342 35.1761 241.958 34.7917 242.401 34.0227C242.848 33.2538 243.072 32.142 243.072 30.6875C243.072 29.7216 242.969 28.9053 242.765 28.2386C242.564 27.5682 242.274 27.0606 241.895 26.7159C241.52 26.3674 241.073 26.1932 240.554 26.1932C239.77 26.1932 239.155 26.5795 238.708 27.3523C238.261 28.125 238.036 29.2367 238.032 30.6875C238.032 31.6572 238.132 32.4773 238.333 33.1477C238.537 33.8144 238.827 34.3201 239.202 34.6648C239.577 35.0057 240.028 35.1761 240.554 35.1761ZM246.982 39.7727V27.7727H248.641V29.1875H248.783C248.882 29.0057 249.024 28.7955 249.209 28.5568C249.395 28.3182 249.653 28.1098 249.982 27.9318C250.312 27.75 250.747 27.6591 251.289 27.6591C251.994 27.6591 252.622 27.8371 253.175 28.1932C253.728 28.5492 254.162 29.0625 254.476 29.733C254.795 30.4034 254.954 31.2102 254.954 32.1534C254.954 33.0966 254.797 33.9053 254.482 34.5795C254.168 35.25 253.736 35.767 253.187 36.1307C252.637 36.4905 252.011 36.6705 251.306 36.6705C250.776 36.6705 250.342 36.5814 250.005 36.4034C249.672 36.2254 249.41 36.017 249.221 35.7784C249.031 35.5398 248.886 35.3277 248.783 35.142H248.681V39.7727H246.982ZM248.647 32.1364C248.647 32.75 248.736 33.2879 248.914 33.75C249.092 34.2121 249.35 34.5739 249.687 34.8352C250.024 35.0928 250.437 35.2216 250.925 35.2216C251.433 35.2216 251.857 35.0871 252.198 34.8182C252.539 34.5455 252.797 34.1761 252.971 33.7102C253.149 33.2443 253.238 32.7197 253.238 32.1364C253.238 31.5606 253.151 31.0436 252.976 30.5852C252.806 30.1269 252.548 29.7652 252.204 29.5C251.863 29.2348 251.437 29.1023 250.925 29.1023C250.433 29.1023 250.016 29.2292 249.675 29.483C249.338 29.7367 249.083 30.0909 248.908 30.5455C248.734 31 248.647 31.5303 248.647 32.1364Z" fill="#F5F5F5" fill-opacity="0.5" shape-rendering="crispEdges"/>
</g>
<rect x="30" y="54" width="236" height="1" rx="0.1" fill="#F5F5F5" fill-opacity="0.3"/>
<g filter="url(#filter4_d_326_4511)">
<path fill-rule="evenodd" clip-rule="evenodd" d="M29 84C32.3137 84 35 81.3137 35 78C35 74.6863 32.3137 72 29 72C25.6863 72 23 74.6863 23 78C23 81.3137 25.6863 84 29 84ZM29 82.125C31.2782 82.125 33.125 80.2782 33.125 78C33.125 75.7218 31.2782 73.875 29 73.875C26.7218 73.875 24.875 75.7218 24.875 78C24.875 80.2782 26.7218 82.125 29 82.125Z" fill="#F5F5F5" fill-opacity="0.5" shape-rendering="crispEdges"/>
</g>
<g filter="url(#filter5_d_326_4511)">
<path d="M50.2614 83.5H48.3977L52.5852 71.8636H54.6136L58.8011 83.5H56.9375L53.6477 73.9773H53.5568L50.2614 83.5ZM50.5739 78.9432H56.6193V80.4205H50.5739V78.9432ZM66.0016 79.8807V74.7727H67.7061V83.5H66.0357V81.9886H65.9448C65.744 82.4545 65.422 82.8428 64.9789 83.1534C64.5395 83.4602 63.9921 83.6136 63.3368 83.6136C62.7762 83.6136 62.28 83.4905 61.8482 83.2443C61.4201 82.9943 61.083 82.625 60.8368 82.1364C60.5944 81.6477 60.4732 81.0436 60.4732 80.3239V74.7727H62.172V80.1193C62.172 80.714 62.3368 81.1875 62.6664 81.5398C62.9959 81.892 63.4239 82.0682 63.9504 82.0682C64.2686 82.0682 64.5849 81.9886 64.8993 81.8295C65.2175 81.6705 65.4807 81.4299 65.6891 81.108C65.9012 80.786 66.0054 80.3769 66.0016 79.8807ZM74.1907 74.7727V76.1364H69.4236V74.7727H74.1907ZM70.702 72.6818H72.4009V80.9375C72.4009 81.267 72.4501 81.5152 72.5486 81.6818C72.6471 81.8447 72.774 81.9564 72.9293 82.017C73.0884 82.0739 73.2607 82.1023 73.4463 82.1023C73.5827 82.1023 73.702 82.0928 73.8043 82.0739C73.9066 82.0549 73.9861 82.0398 74.0429 82.0284L74.3498 83.4318C74.2513 83.4697 74.1111 83.5076 73.9293 83.5455C73.7475 83.5871 73.5202 83.6098 73.2475 83.6136C72.8005 83.6212 72.3838 83.5417 71.9975 83.375C71.6111 83.2083 71.2986 82.9508 71.06 82.6023C70.8213 82.2538 70.702 81.8163 70.702 81.2898V72.6818ZM79.7803 83.6761C78.9621 83.6761 78.2481 83.4886 77.6383 83.1136C77.0284 82.7386 76.5549 82.214 76.2178 81.5398C75.8807 80.8655 75.7121 80.0777 75.7121 79.1761C75.7121 78.2708 75.8807 77.4792 76.2178 76.8011C76.5549 76.1231 77.0284 75.5966 77.6383 75.2216C78.2481 74.8466 78.9621 74.6591 79.7803 74.6591C80.5985 74.6591 81.3125 74.8466 81.9224 75.2216C82.5322 75.5966 83.0057 76.1231 83.3428 76.8011C83.6799 77.4792 83.8485 78.2708 83.8485 79.1761C83.8485 80.0777 83.6799 80.8655 83.3428 81.5398C83.0057 82.214 82.5322 82.7386 81.9224 83.1136C81.3125 83.4886 80.5985 83.6761 79.7803 83.6761ZM79.786 82.25C80.3163 82.25 80.7557 82.1098 81.1042 81.8295C81.4527 81.5492 81.7102 81.1761 81.8769 80.7102C82.0474 80.2443 82.1326 79.7311 82.1326 79.1705C82.1326 78.6136 82.0474 78.1023 81.8769 77.6364C81.7102 77.1667 81.4527 76.7898 81.1042 76.5057C80.7557 76.2216 80.3163 76.0795 79.786 76.0795C79.2519 76.0795 78.8087 76.2216 78.4564 76.5057C78.108 76.7898 77.8485 77.1667 77.678 77.6364C77.5114 78.1023 77.428 78.6136 77.428 79.1705C77.428 79.7311 77.5114 80.2443 77.678 80.7102C77.8485 81.1761 78.108 81.5492 78.4564 81.8295C78.8087 82.1098 79.2519 82.25 79.786 82.25Z" fill="#F5F5F5" fill-opacity="0.5" shape-rendering="crispEdges"/>
</g>
<g filter="url(#filter6_d_326_4511)">
<path d="M29 124.625C30.4497 124.625 31.625 123.45 31.625 122C31.625 120.55 30.4497 119.375 29 119.375C27.5503 119.375 26.375 120.55 26.375 122C26.375 123.45 27.5503 124.625 29 124.625Z" fill="#F5F5F5"/>
<path fill-rule="evenodd" clip-rule="evenodd" d="M35 122C35 125.314 32.3137 128 29 128C25.6863 128 23 125.314 23 122C23 118.686 25.6863 116 29 116C32.3137 116 35 118.686 35 122ZM33.5 122C33.5 124.485 31.4853 126.5 29 126.5C26.5147 126.5 24.5 124.485 24.5 122C24.5 119.515 26.5147 117.5 29 117.5C31.4853 117.5 33.5 119.515 33.5 122Z" fill="#F5F5F5"/>
</g>
<g filter="url(#filter7_d_326_4511)">
<path d="M53.5341 115.864V127.5H51.7727V117.625H51.7045L48.9205 119.443V117.761L51.8239 115.864H53.5341ZM60.861 127.693C59.9632 127.689 59.1962 127.453 58.5598 126.983C57.9235 126.513 57.4367 125.83 57.0996 124.932C56.7625 124.034 56.5939 122.953 56.5939 121.688C56.5939 120.426 56.7625 119.348 57.0996 118.455C57.4405 117.561 57.9291 116.879 58.5655 116.409C59.2057 115.939 59.9708 115.705 60.861 115.705C61.7511 115.705 62.5144 115.941 63.1507 116.415C63.7871 116.884 64.2738 117.566 64.611 118.46C64.9519 119.35 65.1223 120.426 65.1223 121.688C65.1223 122.956 64.9538 124.04 64.6166 124.938C64.2795 125.831 63.7928 126.515 63.1564 126.989C62.52 127.458 61.7549 127.693 60.861 127.693ZM60.861 126.176C61.6488 126.176 62.2644 125.792 62.7075 125.023C63.1545 124.254 63.378 123.142 63.378 121.688C63.378 120.722 63.2757 119.905 63.0712 119.239C62.8704 118.568 62.5807 118.061 62.2019 117.716C61.8269 117.367 61.3799 117.193 60.861 117.193C60.0769 117.193 59.4613 117.58 59.0144 118.352C58.5674 119.125 58.342 120.237 58.3382 121.688C58.3382 122.657 58.4386 123.477 58.6394 124.148C58.8439 124.814 59.1337 125.32 59.5087 125.665C59.8837 126.006 60.3344 126.176 60.861 126.176ZM71.1978 127.659C70.3834 127.659 69.6637 127.519 69.0387 127.239C68.4175 126.958 67.9307 126.572 67.5784 126.08C67.2262 125.587 67.0519 125.027 67.0557 124.398C67.0519 123.905 67.1523 123.453 67.3569 123.04C67.5652 122.623 67.8474 122.277 68.2034 122C68.5595 121.72 68.9572 121.542 69.3966 121.466V121.398C68.8171 121.258 68.3531 120.947 68.0046 120.466C67.6561 119.985 67.4837 119.432 67.4875 118.807C67.4837 118.212 67.6409 117.682 67.9591 117.216C68.2811 116.746 68.7224 116.377 69.283 116.108C69.8436 115.839 70.4819 115.705 71.1978 115.705C71.9061 115.705 72.5387 115.841 73.0955 116.114C73.6561 116.383 74.0974 116.752 74.4194 117.222C74.7413 117.687 74.9042 118.216 74.908 118.807C74.9042 119.432 74.7262 119.985 74.3739 120.466C74.0216 120.947 73.5633 121.258 72.9989 121.398V121.466C73.4345 121.542 73.8265 121.72 74.175 122C74.5273 122.277 74.8076 122.623 75.0159 123.04C75.2281 123.453 75.336 123.905 75.3398 124.398C75.336 125.027 75.158 125.587 74.8057 126.08C74.4534 126.572 73.9648 126.958 73.3398 127.239C72.7186 127.519 72.0046 127.659 71.1978 127.659ZM71.1978 126.222C71.6788 126.222 72.0955 126.142 72.4478 125.983C72.8 125.82 73.0728 125.595 73.2659 125.307C73.4591 125.015 73.5576 124.674 73.5614 124.284C73.5576 123.879 73.4515 123.521 73.2432 123.21C73.0387 122.9 72.7603 122.655 72.408 122.477C72.0557 122.299 71.6523 122.21 71.1978 122.21C70.7394 122.21 70.3322 122.299 69.9762 122.477C69.6201 122.655 69.3398 122.9 69.1353 123.21C68.9307 123.521 68.8303 123.879 68.8341 124.284C68.8303 124.674 68.9231 125.015 69.1125 125.307C69.3057 125.595 69.5803 125.82 69.9364 125.983C70.2925 126.142 70.7129 126.222 71.1978 126.222ZM71.1978 120.807C71.5841 120.807 71.9269 120.729 72.2262 120.574C72.5254 120.419 72.7603 120.203 72.9307 119.926C73.105 119.65 73.194 119.326 73.1978 118.955C73.194 118.591 73.1069 118.273 72.9364 118C72.7697 117.727 72.5368 117.517 72.2375 117.369C71.9383 117.218 71.5917 117.142 71.1978 117.142C70.7962 117.142 70.444 117.218 70.1409 117.369C69.8417 117.517 69.6087 117.727 69.4421 118C69.2754 118.273 69.194 118.591 69.1978 118.955C69.194 119.326 69.2773 119.65 69.4478 119.926C69.6182 120.203 69.8531 120.419 70.1523 120.574C70.4553 120.729 70.8038 120.807 71.1978 120.807ZM81.5545 127.693C80.6567 127.689 79.8897 127.453 79.2533 126.983C78.617 126.513 78.1302 125.83 77.7931 124.932C77.456 124.034 77.2874 122.953 77.2874 121.688C77.2874 120.426 77.456 119.348 77.7931 118.455C78.134 117.561 78.6226 116.879 79.259 116.409C79.8992 115.939 80.6643 115.705 81.5545 115.705C82.4446 115.705 83.2079 115.941 83.8442 116.415C84.4806 116.884 84.9673 117.566 85.3045 118.46C85.6454 119.35 85.8158 120.426 85.8158 121.688C85.8158 122.956 85.6473 124.04 85.3101 124.938C84.973 125.831 84.4863 126.515 83.8499 126.989C83.2135 127.458 82.4484 127.693 81.5545 127.693ZM81.5545 126.176C82.3423 126.176 82.9579 125.792 83.401 125.023C83.848 124.254 84.0715 123.142 84.0715 121.688C84.0715 120.722 83.9692 119.905 83.7647 119.239C83.5639 118.568 83.2742 118.061 82.8954 117.716C82.5204 117.367 82.0734 117.193 81.5545 117.193C80.7704 117.193 80.1548 117.58 79.7079 118.352C79.2609 119.125 79.0355 120.237 79.0317 121.688C79.0317 122.657 79.1321 123.477 79.3329 124.148C79.5374 124.814 79.8272 125.32 80.2022 125.665C80.5772 126.006 81.0279 126.176 81.5545 126.176ZM87.9822 130.773V118.773H89.6413V120.188H89.7833C89.8818 120.006 90.0238 119.795 90.2094 119.557C90.3951 119.318 90.6526 119.11 90.9822 118.932C91.3117 118.75 91.7473 118.659 92.289 118.659C92.9935 118.659 93.6223 118.837 94.1754 119.193C94.7284 119.549 95.1621 120.062 95.4765 120.733C95.7947 121.403 95.9538 122.21 95.9538 123.153C95.9538 124.097 95.7966 124.905 95.4822 125.58C95.1678 126.25 94.736 126.767 94.1867 127.131C93.6375 127.491 93.0106 127.67 92.306 127.67C91.7757 127.67 91.342 127.581 91.0049 127.403C90.6716 127.225 90.4102 127.017 90.2208 126.778C90.0314 126.54 89.8856 126.328 89.7833 126.142H89.681V130.773H87.9822ZM89.6469 123.136C89.6469 123.75 89.736 124.288 89.914 124.75C90.092 125.212 90.3496 125.574 90.6867 125.835C91.0238 126.093 91.4367 126.222 91.9254 126.222C92.4329 126.222 92.8572 126.087 93.1981 125.818C93.539 125.545 93.7966 125.176 93.9708 124.71C94.1488 124.244 94.2379 123.72 94.2379 123.136C94.2379 122.561 94.1507 122.044 93.9765 121.585C93.806 121.127 93.5485 120.765 93.2038 120.5C92.8629 120.235 92.4367 120.102 91.9254 120.102C91.4329 120.102 91.0163 120.229 90.6754 120.483C90.3382 120.737 90.0826 121.091 89.9083 121.545C89.7341 122 89.6469 122.53 89.6469 123.136Z" fill="#F5F5F5"/>
</g>
<g filter="url(#filter8_d_326_4511)">
<path fill-rule="evenodd" clip-rule="evenodd" d="M29 172C32.3137 172 35 169.314 35 166C35 162.686 32.3137 160 29 160C25.6863 160 23 162.686 23 166C23 169.314 25.6863 172 29 172ZM29 170.125C31.2782 170.125 33.125 168.278 33.125 166C33.125 163.722 31.2782 161.875 29 161.875C26.7218 161.875 24.875 163.722 24.875 166C24.875 168.278 26.7218 170.125 29 170.125Z" fill="#F5F5F5" fill-opacity="0.5" shape-rendering="crispEdges"/>
</g>
<g filter="url(#filter9_d_326_4511)">
<path d="M49.5114 171.5L54.5909 161.455V161.369H48.7159V159.864H56.4091V161.42L51.3466 171.5H49.5114ZM58.5129 171.5V170.227L62.4504 166.148C62.8709 165.705 63.2175 165.316 63.4902 164.983C63.7667 164.646 63.9732 164.326 64.1095 164.023C64.2459 163.72 64.3141 163.398 64.3141 163.057C64.3141 162.67 64.2232 162.337 64.0414 162.057C63.8595 161.773 63.6114 161.555 63.297 161.403C62.9826 161.248 62.6285 161.17 62.2345 161.17C61.8179 161.17 61.4542 161.256 61.1436 161.426C60.833 161.597 60.5944 161.837 60.4277 162.148C60.261 162.458 60.1777 162.822 60.1777 163.239H58.5016C58.5016 162.53 58.6645 161.911 58.9902 161.381C59.316 160.85 59.7629 160.439 60.3311 160.148C60.8993 159.852 61.5451 159.705 62.2686 159.705C62.9997 159.705 63.6436 159.85 64.2004 160.142C64.761 160.43 65.1985 160.824 65.5129 161.324C65.8273 161.82 65.9845 162.381 65.9845 163.006C65.9845 163.438 65.9031 163.86 65.7402 164.273C65.5811 164.686 65.3027 165.146 64.905 165.653C64.5073 166.157 63.9542 166.769 63.2459 167.489L60.9334 169.909V169.994H66.172V171.5H58.5129ZM72.5046 171.693C71.6069 171.689 70.8398 171.453 70.2034 170.983C69.5671 170.513 69.0803 169.83 68.7432 168.932C68.4061 168.034 68.2375 166.953 68.2375 165.688C68.2375 164.426 68.4061 163.348 68.7432 162.455C69.0841 161.561 69.5728 160.879 70.2091 160.409C70.8493 159.939 71.6144 159.705 72.5046 159.705C73.3947 159.705 74.158 159.941 74.7944 160.415C75.4307 160.884 75.9175 161.566 76.2546 162.46C76.5955 163.35 76.7659 164.426 76.7659 165.688C76.7659 166.956 76.5974 168.04 76.2603 168.938C75.9231 169.831 75.4364 170.515 74.8 170.989C74.1637 171.458 73.3985 171.693 72.5046 171.693ZM72.5046 170.176C73.2925 170.176 73.908 169.792 74.3512 169.023C74.7981 168.254 75.0216 167.142 75.0216 165.688C75.0216 164.722 74.9194 163.905 74.7148 163.239C74.514 162.568 74.2243 162.061 73.8455 161.716C73.4705 161.367 73.0235 161.193 72.5046 161.193C71.7205 161.193 71.105 161.58 70.658 162.352C70.211 163.125 69.9856 164.237 69.9819 165.688C69.9819 166.657 70.0822 167.477 70.283 168.148C70.4875 168.814 70.7773 169.32 71.1523 169.665C71.5273 170.006 71.9781 170.176 72.5046 170.176ZM78.9323 174.773V162.773H80.5914V164.188H80.7334C80.8319 164.006 80.974 163.795 81.1596 163.557C81.3452 163.318 81.6028 163.11 81.9323 162.932C82.2618 162.75 82.6974 162.659 83.2391 162.659C83.9437 162.659 84.5724 162.837 85.1255 163.193C85.6785 163.549 86.1122 164.062 86.4266 164.733C86.7448 165.403 86.9039 166.21 86.9039 167.153C86.9039 168.097 86.7467 168.905 86.4323 169.58C86.1179 170.25 85.6861 170.767 85.1368 171.131C84.5876 171.491 83.9607 171.67 83.2562 171.67C82.7259 171.67 82.2921 171.581 81.955 171.403C81.6217 171.225 81.3603 171.017 81.1709 170.778C80.9815 170.54 80.8357 170.328 80.7334 170.142H80.6312V174.773H78.9323ZM80.5971 167.136C80.5971 167.75 80.6861 168.288 80.8641 168.75C81.0421 169.212 81.2997 169.574 81.6368 169.835C81.974 170.093 82.3868 170.222 82.8755 170.222C83.3831 170.222 83.8073 170.087 84.1482 169.818C84.4891 169.545 84.7467 169.176 84.9209 168.71C85.099 168.244 85.188 167.72 85.188 167.136C85.188 166.561 85.1009 166.044 84.9266 165.585C84.7562 165.127 84.4986 164.765 84.1539 164.5C83.813 164.235 83.3868 164.102 82.8755 164.102C82.3831 164.102 81.9664 164.229 81.6255 164.483C81.2884 164.737 81.0327 165.091 80.8584 165.545C80.6842 166 80.5971 166.53 80.5971 167.136Z" fill="#F5F5F5" fill-opacity="0.5" shape-rendering="crispEdges"/>
</g>
<g filter="url(#filter10_d_326_4511)">
<path fill-rule="evenodd" clip-rule="evenodd" d="M29 216C32.3137 216 35 213.314 35 210C35 206.686 32.3137 204 29 204C25.6863 204 23 206.686 23 210C23 213.314 25.6863 216 29 216ZM29 214.125C31.2782 214.125 33.125 212.278 33.125 210C33.125 207.722 31.2782 205.875 29 205.875C26.7218 205.875 24.875 207.722 24.875 210C24.875 212.278 26.7218 214.125 29 214.125Z" fill="#F5F5F5" fill-opacity="0.5" shape-rendering="crispEdges"/>
</g>
<g filter="url(#filter11_d_326_4511)">
<path d="M48.875 213.227V211.807L53.9034 203.864H55.0227V205.955H54.3125L50.7159 211.648V211.739H57.608V213.227H48.875ZM54.392 215.5V212.795L54.4034 212.148V203.864H56.0682V215.5H54.392ZM63.6479 215.659C62.8335 215.659 62.1138 215.519 61.4888 215.239C60.8676 214.958 60.3808 214.572 60.0286 214.08C59.6763 213.587 59.5021 213.027 59.5058 212.398C59.5021 211.905 59.6024 211.453 59.807 211.04C60.0153 210.623 60.2975 210.277 60.6536 210C61.0096 209.72 61.4074 209.542 61.8468 209.466V209.398C61.2672 209.258 60.8032 208.947 60.4547 208.466C60.1062 207.985 59.9339 207.432 59.9377 206.807C59.9339 206.212 60.0911 205.682 60.4093 205.216C60.7312 204.746 61.1725 204.377 61.7331 204.108C62.2937 203.839 62.932 203.705 63.6479 203.705C64.3562 203.705 64.9888 203.841 65.5456 204.114C66.1062 204.383 66.5475 204.752 66.8695 205.222C67.1914 205.687 67.3543 206.216 67.3581 206.807C67.3543 207.432 67.1763 207.985 66.824 208.466C66.4718 208.947 66.0134 209.258 65.449 209.398V209.466C65.8846 209.542 66.2767 209.72 66.6252 210C66.9774 210.277 67.2577 210.623 67.4661 211.04C67.6782 211.453 67.7861 211.905 67.7899 212.398C67.7861 213.027 67.6081 213.587 67.2558 214.08C66.9036 214.572 66.4149 214.958 65.7899 215.239C65.1687 215.519 64.4547 215.659 63.6479 215.659ZM63.6479 214.222C64.1289 214.222 64.5456 214.142 64.8979 213.983C65.2502 213.82 65.5229 213.595 65.7161 213.307C65.9093 213.015 66.0077 212.674 66.0115 212.284C66.0077 211.879 65.9017 211.521 65.6933 211.21C65.4888 210.9 65.2104 210.655 64.8581 210.477C64.5058 210.299 64.1024 210.21 63.6479 210.21C63.1896 210.21 62.7824 210.299 62.4263 210.477C62.0702 210.655 61.7899 210.9 61.5854 211.21C61.3808 211.521 61.2805 211.879 61.2843 212.284C61.2805 212.674 61.3733 213.015 61.5627 213.307C61.7558 213.595 62.0305 213.82 62.3865 213.983C62.7426 214.142 63.163 214.222 63.6479 214.222ZM63.6479 208.807C64.0343 208.807 64.3771 208.729 64.6763 208.574C64.9755 208.419 65.2104 208.203 65.3808 207.926C65.5551 207.65 65.6441 207.326 65.6479 206.955C65.6441 206.591 65.557 206.273 65.3865 206C65.2199 205.727 64.9869 205.517 64.6877 205.369C64.3884 205.218 64.0418 205.142 63.6479 205.142C63.2464 205.142 62.8941 205.218 62.5911 205.369C62.2918 205.517 62.0589 205.727 61.8922 206C61.7255 206.273 61.6441 206.591 61.6479 206.955C61.6441 207.326 61.7274 207.65 61.8979 207.926C62.0683 208.203 62.3032 208.419 62.6024 208.574C62.9055 208.729 63.2539 208.807 63.6479 208.807ZM74.0046 215.693C73.1069 215.689 72.3398 215.453 71.7034 214.983C71.0671 214.513 70.5803 213.83 70.2432 212.932C69.9061 212.034 69.7375 210.953 69.7375 209.688C69.7375 208.426 69.9061 207.348 70.2432 206.455C70.5841 205.561 71.0728 204.879 71.7091 204.409C72.3493 203.939 73.1144 203.705 74.0046 203.705C74.8947 203.705 75.658 203.941 76.2944 204.415C76.9307 204.884 77.4175 205.566 77.7546 206.46C78.0955 207.35 78.2659 208.426 78.2659 209.688C78.2659 210.956 78.0974 212.04 77.7603 212.938C77.4231 213.831 76.9364 214.515 76.3 214.989C75.6637 215.458 74.8985 215.693 74.0046 215.693ZM74.0046 214.176C74.7925 214.176 75.408 213.792 75.8512 213.023C76.2981 212.254 76.5216 211.142 76.5216 209.688C76.5216 208.722 76.4194 207.905 76.2148 207.239C76.014 206.568 75.7243 206.061 75.3455 205.716C74.9705 205.367 74.5235 205.193 74.0046 205.193C73.2205 205.193 72.605 205.58 72.158 206.352C71.711 207.125 71.4856 208.237 71.4819 209.688C71.4819 210.657 71.5822 211.477 71.783 212.148C71.9875 212.814 72.2773 213.32 72.6523 213.665C73.0273 214.006 73.4781 214.176 74.0046 214.176ZM80.4323 218.773V206.773H82.0914V208.188H82.2334C82.3319 208.006 82.474 207.795 82.6596 207.557C82.8452 207.318 83.1028 207.11 83.4323 206.932C83.7618 206.75 84.1974 206.659 84.7391 206.659C85.4437 206.659 86.0724 206.837 86.6255 207.193C87.1785 207.549 87.6122 208.062 87.9266 208.733C88.2448 209.403 88.4039 210.21 88.4039 211.153C88.4039 212.097 88.2467 212.905 87.9323 213.58C87.6179 214.25 87.1861 214.767 86.6368 215.131C86.0876 215.491 85.4607 215.67 84.7562 215.67C84.2259 215.67 83.7921 215.581 83.455 215.403C83.1217 215.225 82.8603 215.017 82.6709 214.778C82.4815 214.54 82.3357 214.328 82.2334 214.142H82.1312V218.773H80.4323ZM82.0971 211.136C82.0971 211.75 82.1861 212.288 82.3641 212.75C82.5421 213.212 82.7997 213.574 83.1368 213.835C83.474 214.093 83.8868 214.222 84.3755 214.222C84.8831 214.222 85.3073 214.087 85.6482 213.818C85.9891 213.545 86.2467 213.176 86.4209 212.71C86.599 212.244 86.688 211.72 86.688 211.136C86.688 210.561 86.6009 210.044 86.4266 209.585C86.2562 209.127 85.9986 208.765 85.6539 208.5C85.313 208.235 84.8868 208.102 84.3755 208.102C83.8831 208.102 83.4664 208.229 83.1255 208.483C82.7884 208.737 82.5327 209.091 82.3584 209.545C82.1842 210 82.0971 210.53 82.0971 211.136Z" fill="#F5F5F5" fill-opacity="0.5" shape-rendering="crispEdges"/>
</g>
<g filter="url(#filter12_d_326_4511)">
<path fill-rule="evenodd" clip-rule="evenodd" d="M29 260C32.3137 260 35 257.314 35 254C35 250.686 32.3137 248 29 248C25.6863 248 23 250.686 23 254C23 257.314 25.6863 260 29 260ZM29 258.125C31.2782 258.125 33.125 256.278 33.125 254C33.125 251.722 31.2782 249.875 29 249.875C26.7218 249.875 24.875 251.722 24.875 254C24.875 256.278 26.7218 258.125 29 258.125Z" fill="#F5F5F5" fill-opacity="0.5" shape-rendering="crispEdges"/>
</g>
<g filter="url(#filter13_d_326_4511)">
<path d="M53.1705 259.659C52.3902 259.659 51.6932 259.525 51.0795 259.256C50.4697 258.987 49.9867 258.614 49.6307 258.136C49.2784 257.655 49.089 257.098 49.0625 256.466H50.8466C50.8693 256.811 50.9848 257.11 51.1932 257.364C51.4053 257.614 51.6818 257.807 52.0227 257.943C52.3636 258.08 52.7424 258.148 53.1591 258.148C53.6174 258.148 54.0227 258.068 54.375 257.909C54.7311 257.75 55.0095 257.528 55.2102 257.244C55.411 256.956 55.5114 256.625 55.5114 256.25C55.5114 255.86 55.411 255.517 55.2102 255.222C55.0133 254.922 54.7235 254.687 54.3409 254.517C53.9621 254.347 53.5038 254.261 52.9659 254.261H51.983V252.83H52.9659C53.3977 252.83 53.7765 252.752 54.1023 252.597C54.4318 252.441 54.6894 252.225 54.875 251.949C55.0606 251.669 55.1534 251.341 55.1534 250.966C55.1534 250.606 55.072 250.294 54.9091 250.028C54.75 249.759 54.5227 249.549 54.2273 249.398C53.9356 249.246 53.5909 249.17 53.1932 249.17C52.8144 249.17 52.4602 249.241 52.1307 249.381C51.8049 249.517 51.5398 249.714 51.3352 249.972C51.1307 250.225 51.0208 250.53 51.0057 250.886H49.3068C49.3258 250.258 49.5114 249.705 49.8636 249.227C50.2197 248.75 50.6894 248.377 51.2727 248.108C51.8561 247.839 52.5038 247.705 53.2159 247.705C53.9621 247.705 54.6061 247.85 55.1477 248.142C55.6932 248.43 56.1136 248.814 56.4091 249.295C56.7083 249.777 56.8561 250.303 56.8523 250.875C56.8561 251.527 56.6742 252.08 56.3068 252.534C55.9432 252.989 55.4583 253.294 54.8523 253.449V253.54C55.625 253.657 56.2235 253.964 56.6477 254.46C57.0758 254.956 57.2879 255.572 57.2841 256.307C57.2879 256.947 57.1098 257.521 56.75 258.028C56.3939 258.536 55.9072 258.936 55.2898 259.227C54.6723 259.515 53.9659 259.659 53.1705 259.659ZM63.6223 259.659C63.1034 259.652 62.592 259.557 62.0882 259.375C61.5882 259.193 61.1337 258.89 60.7246 258.466C60.3155 258.042 59.9878 257.472 59.7416 256.756C59.4992 256.04 59.378 255.146 59.378 254.074C59.378 253.059 59.4784 252.157 59.6791 251.369C59.8837 250.581 60.1772 249.917 60.5598 249.375C60.9424 248.83 61.4045 248.415 61.9462 248.131C62.4878 247.847 63.0958 247.705 63.77 247.705C64.4632 247.705 65.0788 247.841 65.6166 248.114C66.1545 248.386 66.5901 248.763 66.9235 249.244C67.2606 249.725 67.4746 250.273 67.5655 250.886H65.8325C65.7151 250.402 65.4822 250.006 65.1337 249.699C64.7852 249.392 64.3307 249.239 63.77 249.239C62.9178 249.239 62.253 249.61 61.7757 250.352C61.3022 251.095 61.0636 252.127 61.0598 253.449H61.145C61.3458 253.119 61.592 252.839 61.8837 252.608C62.1791 252.373 62.5087 252.193 62.8723 252.068C63.2397 251.939 63.6261 251.875 64.0314 251.875C64.7057 251.875 65.3155 252.04 65.861 252.369C66.4102 252.695 66.8477 253.146 67.1735 253.722C67.4992 254.297 67.6621 254.956 67.6621 255.699C67.6621 256.441 67.4935 257.114 67.1564 257.716C66.8231 258.318 66.3534 258.795 65.7473 259.148C65.1413 259.496 64.4329 259.667 63.6223 259.659ZM63.6166 258.182C64.0636 258.182 64.4632 258.072 64.8155 257.852C65.1678 257.633 65.4462 257.337 65.6507 256.966C65.8553 256.595 65.9575 256.18 65.9575 255.722C65.9575 255.275 65.8572 254.867 65.6564 254.5C65.4594 254.133 65.1867 253.841 64.8382 253.625C64.4935 253.409 64.0996 253.301 63.6564 253.301C63.3193 253.301 63.0068 253.366 62.7189 253.494C62.4348 253.623 62.1848 253.801 61.9689 254.028C61.753 254.256 61.5825 254.517 61.4575 254.812C61.3363 255.104 61.2757 255.413 61.2757 255.739C61.2757 256.174 61.3761 256.578 61.5769 256.949C61.7814 257.32 62.0598 257.619 62.4121 257.847C62.7682 258.07 63.1697 258.182 63.6166 258.182ZM73.9108 259.693C73.0131 259.689 72.2461 259.453 71.6097 258.983C70.9733 258.513 70.4866 257.83 70.1495 256.932C69.8123 256.034 69.6438 254.953 69.6438 253.688C69.6438 252.426 69.8123 251.348 70.1495 250.455C70.4904 249.561 70.979 248.879 71.6154 248.409C72.2555 247.939 73.0207 247.705 73.9108 247.705C74.801 247.705 75.5642 247.941 76.2006 248.415C76.837 248.884 77.3237 249.566 77.6608 250.46C78.0017 251.35 78.1722 252.426 78.1722 253.688C78.1722 254.956 78.0036 256.04 77.6665 256.938C77.3294 257.831 76.8426 258.515 76.2063 258.989C75.5699 259.458 74.8048 259.693 73.9108 259.693ZM73.9108 258.176C74.6987 258.176 75.3142 257.792 75.7574 257.023C76.2044 256.254 76.4279 255.142 76.4279 253.688C76.4279 252.722 76.3256 251.905 76.1211 251.239C75.9203 250.568 75.6305 250.061 75.2517 249.716C74.8767 249.367 74.4298 249.193 73.9108 249.193C73.1267 249.193 72.5112 249.58 72.0642 250.352C71.6173 251.125 71.3919 252.237 71.3881 253.688C71.3881 254.657 71.4885 255.477 71.6892 256.148C71.8938 256.814 72.1836 257.32 72.5586 257.665C72.9336 258.006 73.3843 258.176 73.9108 258.176ZM80.3385 262.773V250.773H81.9976V252.188H82.1397C82.2382 252.006 82.3802 251.795 82.5658 251.557C82.7514 251.318 83.009 251.11 83.3385 250.932C83.6681 250.75 84.1037 250.659 84.6454 250.659C85.3499 250.659 85.9787 250.837 86.5317 251.193C87.0848 251.549 87.5185 252.062 87.8329 252.733C88.151 253.403 88.3101 254.21 88.3101 255.153C88.3101 256.097 88.1529 256.905 87.8385 257.58C87.5242 258.25 87.0923 258.767 86.5431 259.131C85.9938 259.491 85.367 259.67 84.6624 259.67C84.1321 259.67 83.6984 259.581 83.3613 259.403C83.0279 259.225 82.7666 259.017 82.5772 258.778C82.3878 258.54 82.242 258.328 82.1397 258.142H82.0374V262.773H80.3385ZM82.0033 255.136C82.0033 255.75 82.0923 256.288 82.2704 256.75C82.4484 257.212 82.706 257.574 83.0431 257.835C83.3802 258.093 83.7931 258.222 84.2817 258.222C84.7893 258.222 85.2135 258.087 85.5545 257.818C85.8954 257.545 86.1529 257.176 86.3272 256.71C86.5052 256.244 86.5942 255.72 86.5942 255.136C86.5942 254.561 86.5071 254.044 86.3329 253.585C86.1624 253.127 85.9048 252.765 85.5601 252.5C85.2192 252.235 84.7931 252.102 84.2817 252.102C83.7893 252.102 83.3726 252.229 83.0317 252.483C82.6946 252.737 82.4389 253.091 82.2647 253.545C82.0904 254 82.0033 254.53 82.0033 255.136Z" fill="#F5F5F5" fill-opacity="0.5" shape-rendering="crispEdges"/>
</g>
</g>
<defs>
<filter id="filter0_bd_326_4511" x="-4" y="-4" width="284" height="293" filterUnits="userSpaceOnUse" color-interpolation-filters="sRGB">
<feFlood flood-opacity="0" result="BackgroundImageFix"/>
<feGaussianBlur in="BackgroundImageFix" stdDeviation="2"/>
<feComposite in2="SourceAlpha" operator="in" result="effect1_backgroundBlur_326_4511"/>
<feColorMatrix in="SourceAlpha" type="matrix" values="0 0 0 0 0 0 0 0 0 0 0 0 0 0 0 0 0 0 127 0" result="hardAlpha"/>
<feOffset dx="1" dy="1"/>
<feGaussianBlur stdDeviation="0.5"/>
<feComposite in2="hardAlpha" operator="out"/>
<feColorMatrix type="matrix" values="0 0 0 0 0.0392157 0 0 0 0 0.0392157 0 0 0 0 0.0392157 0 0 0 0.04 0"/>
<feBlend mode="normal" in2="effect1_backgroundBlur_326_4511" result="effect2_dropShadow_326_4511"/>
<feBlend mode="normal" in="SourceGraphic" in2="effect2_dropShadow_326_4511" result="shape"/>
</filter>
<filter id="filter1_d_326_4511" x="26.8135" y="24.708" width="9.85327" height="14.5837" filterUnits="userSpaceOnUse" color-interpolation-filters="sRGB">
<feFlood flood-opacity="0" result="BackgroundImageFix"/>
<feColorMatrix in="SourceAlpha" type="matrix" values="0 0 0 0 0 0 0 0 0 0 0 0 0 0 0 0 0 0 127 0" result="hardAlpha"/>
<feOffset dx="1" dy="1"/>
<feGaussianBlur stdDeviation="0.5"/>
<feComposite in2="hardAlpha" operator="out"/>
<feColorMatrix type="matrix" values="0 0 0 0 0.0392157 0 0 0 0 0.0392157 0 0 0 0 0.0392157 0 0 0 0.04 0"/>
<feBlend mode="normal" in2="BackgroundImageFix" result="effect1_dropShadow_326_4511"/>
<feBlend mode="normal" in="SourceGraphic" in2="effect1_dropShadow_326_4511" result="shape"/>
</filter>
<filter id="filter2_d_326_4511" x="52.9033" y="24.3977" width="55.3164" height="17.375" filterUnits="userSpaceOnUse" color-interpolation-filters="sRGB">
<feFlood flood-opacity="0" result="BackgroundImageFix"/>
<feColorMatrix in="SourceAlpha" type="matrix" values="0 0 0 0 0 0 0 0 0 0 0 0 0 0 0 0 0 0 127 0" result="hardAlpha"/>
<feOffset dx="1" dy="1"/>
<feGaussianBlur stdDeviation="0.5"/>
<feComposite in2="hardAlpha" operator="out"/>
<feColorMatrix type="matrix" values="0 0 0 0 0.0392157 0 0 0 0 0.0392157 0 0 0 0 0.0392157 0 0 0 0.04 0"/>
<feBlend mode="normal" in2="BackgroundImageFix" result="effect1_dropShadow_326_4511"/>
<feBlend mode="normal" in="SourceGraphic" in2="effect1_dropShadow_326_4511" result="shape"/>
</filter>
<filter id="filter3_d_326_4511" x="207.92" y="24.7046" width="49.0334" height="17.0681" filterUnits="userSpaceOnUse" color-interpolation-filters="sRGB">
<feFlood flood-opacity="0" result="BackgroundImageFix"/>
<feColorMatrix in="SourceAlpha" type="matrix" values="0 0 0 0 0 0 0 0 0 0 0 0 0 0 0 0 0 0 127 0" result="hardAlpha"/>
<feOffset dx="1" dy="1"/>
<feGaussianBlur stdDeviation="0.5"/>
<feComposite in2="hardAlpha" operator="out"/>
<feColorMatrix type="matrix" values="0 0 0 0 0.0392157 0 0 0 0 0.0392157 0 0 0 0 0.0392157 0 0 0 0.04 0"/>
<feBlend mode="normal" in2="BackgroundImageFix" result="effect1_dropShadow_326_4511"/>
<feBlend mode="normal" in="SourceGraphic" in2="effect1_dropShadow_326_4511" result="shape"/>
</filter>
<filter id="filter4_d_326_4511" x="23" y="72" width="14" height="14" filterUnits="userSpaceOnUse" color-interpolation-filters="sRGB">
<feFlood flood-opacity="0" result="BackgroundImageFix"/>
<feColorMatrix in="SourceAlpha" type="matrix" values="0 0 0 0 0 0 0 0 0 0 0 0 0 0 0 0 0 0 127 0" result="hardAlpha"/>
<feOffset dx="1" dy="1"/>
<feGaussianBlur stdDeviation="0.5"/>
<feComposite in2="hardAlpha" operator="out"/>
<feColorMatrix type="matrix" values="0 0 0 0 0.0392157 0 0 0 0 0.0392157 0 0 0 0 0.0392157 0 0 0 0.04 0"/>
<feBlend mode="normal" in2="BackgroundImageFix" result="effect1_dropShadow_326_4511"/>
<feBlend mode="normal" in="SourceGraphic" in2="effect1_dropShadow_326_4511" result="shape"/>
</filter>
<filter id="filter5_d_326_4511" x="48.3977" y="71.8635" width="37.4507" height="13.8125" filterUnits="userSpaceOnUse" color-interpolation-filters="sRGB">
<feFlood flood-opacity="0" result="BackgroundImageFix"/>
<feColorMatrix in="SourceAlpha" type="matrix" values="0 0 0 0 0 0 0 0 0 0 0 0 0 0 0 0 0 0 127 0" result="hardAlpha"/>
<feOffset dx="1" dy="1"/>
<feGaussianBlur stdDeviation="0.5"/>
<feComposite in2="hardAlpha" operator="out"/>
<feColorMatrix type="matrix" values="0 0 0 0 0.0392157 0 0 0 0 0.0392157 0 0 0 0 0.0392157 0 0 0 0.04 0"/>
<feBlend mode="normal" in2="BackgroundImageFix" result="effect1_dropShadow_326_4511"/>
<feBlend mode="normal" in="SourceGraphic" in2="effect1_dropShadow_326_4511" result="shape"/>
</filter>
<filter id="filter6_d_326_4511" x="23" y="116" width="14" height="14" filterUnits="userSpaceOnUse" color-interpolation-filters="sRGB">
<feFlood flood-opacity="0" result="BackgroundImageFix"/>
<feColorMatrix in="SourceAlpha" type="matrix" values="0 0 0 0 0 0 0 0 0 0 0 0 0 0 0 0 0 0 127 0" result="hardAlpha"/>
<feOffset dx="1" dy="1"/>
<feGaussianBlur stdDeviation="0.5"/>
<feComposite in2="hardAlpha" operator="out"/>
<feColorMatrix type="matrix" values="0 0 0 0 0.0392157 0 0 0 0 0.0392157 0 0 0 0 0.0392157 0 0 0 0.04 0"/>
<feBlend mode="normal" in2="BackgroundImageFix" result="effect1_dropShadow_326_4511"/>
<feBlend mode="normal" in="SourceGraphic" in2="effect1_dropShadow_326_4511" result="shape"/>
</filter>
<filter id="filter7_d_326_4511" x="48.9204" y="115.705" width="49.0334" height="17.0681" filterUnits="userSpaceOnUse" color-interpolation-filters="sRGB">
<feFlood flood-opacity="0" result="BackgroundImageFix"/>
<feColorMatrix in="SourceAlpha" type="matrix" values="0 0 0 0 0 0 0 0 0 0 0 0 0 0 0 0 0 0 127 0" result="hardAlpha"/>
<feOffset dx="1" dy="1"/>
<feGaussianBlur stdDeviation="0.5"/>
<feComposite in2="hardAlpha" operator="out"/>
<feColorMatrix type="matrix" values="0 0 0 0 0.0392157 0 0 0 0 0.0392157 0 0 0 0 0.0392157 0 0 0 0.04 0"/>
<feBlend mode="normal" in2="BackgroundImageFix" result="effect1_dropShadow_326_4511"/>
<feBlend mode="normal" in="SourceGraphic" in2="effect1_dropShadow_326_4511" result="shape"/>
</filter>
<filter id="filter8_d_326_4511" x="23" y="160" width="14" height="14" filterUnits="userSpaceOnUse" color-interpolation-filters="sRGB">
<feFlood flood-opacity="0" result="BackgroundImageFix"/>
<feColorMatrix in="SourceAlpha" type="matrix" values="0 0 0 0 0 0 0 0 0 0 0 0 0 0 0 0 0 0 127 0" result="hardAlpha"/>
<feOffset dx="1" dy="1"/>
<feGaussianBlur stdDeviation="0.5"/>
<feComposite in2="hardAlpha" operator="out"/>
<feColorMatrix type="matrix" values="0 0 0 0 0.0392157 0 0 0 0 0.0392157 0 0 0 0 0.0392157 0 0 0 0.04 0"/>
<feBlend mode="normal" in2="BackgroundImageFix" result="effect1_dropShadow_326_4511"/>
<feBlend mode="normal" in="SourceGraphic" in2="effect1_dropShadow_326_4511" result="shape"/>
</filter>
<filter id="filter9_d_326_4511" x="48.7158" y="159.705" width="40.188" height="17.0681" filterUnits="userSpaceOnUse" color-interpolation-filters="sRGB">
<feFlood flood-opacity="0" result="BackgroundImageFix"/>
<feColorMatrix in="SourceAlpha" type="matrix" values="0 0 0 0 0 0 0 0 0 0 0 0 0 0 0 0 0 0 127 0" result="hardAlpha"/>
<feOffset dx="1" dy="1"/>
<feGaussianBlur stdDeviation="0.5"/>
<feComposite in2="hardAlpha" operator="out"/>
<feColorMatrix type="matrix" values="0 0 0 0 0.0392157 0 0 0 0 0.0392157 0 0 0 0 0.0392157 0 0 0 0.04 0"/>
<feBlend mode="normal" in2="BackgroundImageFix" result="effect1_dropShadow_326_4511"/>
<feBlend mode="normal" in="SourceGraphic" in2="effect1_dropShadow_326_4511" result="shape"/>
</filter>
<filter id="filter10_d_326_4511" x="23" y="204" width="14" height="14" filterUnits="userSpaceOnUse" color-interpolation-filters="sRGB">
<feFlood flood-opacity="0" result="BackgroundImageFix"/>
<feColorMatrix in="SourceAlpha" type="matrix" values="0 0 0 0 0 0 0 0 0 0 0 0 0 0 0 0 0 0 127 0" result="hardAlpha"/>
<feOffset dx="1" dy="1"/>
<feGaussianBlur stdDeviation="0.5"/>
<feComposite in2="hardAlpha" operator="out"/>
<feColorMatrix type="matrix" values="0 0 0 0 0.0392157 0 0 0 0 0.0392157 0 0 0 0 0.0392157 0 0 0 0.04 0"/>
<feBlend mode="normal" in2="BackgroundImageFix" result="effect1_dropShadow_326_4511"/>
<feBlend mode="normal" in="SourceGraphic" in2="effect1_dropShadow_326_4511" result="shape"/>
</filter>
<filter id="filter11_d_326_4511" x="48.875" y="203.705" width="41.5288" height="17.0681" filterUnits="userSpaceOnUse" color-interpolation-filters="sRGB">
<feFlood flood-opacity="0" result="BackgroundImageFix"/>
<feColorMatrix in="SourceAlpha" type="matrix" values="0 0 0 0 0 0 0 0 0 0 0 0 0 0 0 0 0 0 127 0" result="hardAlpha"/>
<feOffset dx="1" dy="1"/>
<feGaussianBlur stdDeviation="0.5"/>
<feComposite in2="hardAlpha" operator="out"/>
<feColorMatrix type="matrix" values="0 0 0 0 0.0392157 0 0 0 0 0.0392157 0 0 0 0 0.0392157 0 0 0 0.04 0"/>
<feBlend mode="normal" in2="BackgroundImageFix" result="effect1_dropShadow_326_4511"/>
<feBlend mode="normal" in="SourceGraphic" in2="effect1_dropShadow_326_4511" result="shape"/>
</filter>
<filter id="filter12_d_326_4511" x="23" y="248" width="14" height="14" filterUnits="userSpaceOnUse" color-interpolation-filters="sRGB">
<feFlood flood-opacity="0" result="BackgroundImageFix"/>
<feColorMatrix in="SourceAlpha" type="matrix" values="0 0 0 0 0 0 0 0 0 0 0 0 0 0 0 0 0 0 127 0" result="hardAlpha"/>
<feOffset dx="1" dy="1"/>
<feGaussianBlur stdDeviation="0.5"/>
<feComposite in2="hardAlpha" operator="out"/>
<feColorMatrix type="matrix" values="0 0 0 0 0.0392157 0 0 0 0 0.0392157 0 0 0 0 0.0392157 0 0 0 0.04 0"/>
<feBlend mode="normal" in2="BackgroundImageFix" result="effect1_dropShadow_326_4511"/>
<feBlend mode="normal" in="SourceGraphic" in2="effect1_dropShadow_326_4511" result="shape"/>
</filter>
<filter id="filter13_d_326_4511" x="49.0625" y="247.705" width="41.2476" height="17.0681" filterUnits="userSpaceOnUse" color-interpolation-filters="sRGB">
<feFlood flood-opacity="0" result="BackgroundImageFix"/>
<feColorMatrix in="SourceAlpha" type="matrix" values="0 0 0 0 0 0 0 0 0 0 0 0 0 0 0 0 0 0 127 0" result="hardAlpha"/>
<feOffset dx="1" dy="1"/>
<feGaussianBlur stdDeviation="0.5"/>
<feComposite in2="hardAlpha" operator="out"/>
<feColorMatrix type="matrix" values="0 0 0 0 0.0392157 0 0 0 0 0.0392157 0 0 0 0 0.0392157 0 0 0 0.04 0"/>
<feBlend mode="normal" in2="BackgroundImageFix" result="effect1_dropShadow_326_4511"/>
<feBlend mode="normal" in="SourceGraphic" in2="effect1_dropShadow_326_4511" result="shape"/>
</filter>
</defs>
</svg>
