<svg width="48" height="48" viewBox="0 0 48 48" fill="none" xmlns="http://www.w3.org/2000/svg">
<g filter="url(#filter0_d_538_626)">
<path d="M25.5091 32.6594C25.5091 33.2066 24.8864 33.5207 24.4463 33.1956L17.4485 28.0252C17.4255 28.0082 17.3978 27.9991 17.3692 27.9991H12.6667C12.2985 27.9991 12 27.7006 12 27.3324V20.6658C12 20.2976 12.2985 19.9991 12.6667 19.9991H17.3711C17.3997 19.9991 17.4274 19.9899 17.4504 19.973L24.4463 14.8036C24.8863 14.4784 25.5091 14.7926 25.5091 15.3397L25.5091 32.6594Z" fill="#F5F5F5"/>
<path d="M36.8621 21.6422C37.1225 21.3818 37.1225 20.9597 36.8621 20.6994L35.9193 19.7565C35.659 19.4962 35.2368 19.4962 34.9765 19.7565L32.7134 22.0196C32.6613 22.0717 32.5769 22.0717 32.5248 22.0196L30.262 19.7567C30.0016 19.4964 29.5795 19.4964 29.3191 19.7567L28.3763 20.6996C28.116 20.9599 28.116 21.382 28.3763 21.6424L30.6392 23.9053C30.6913 23.9573 30.6913 24.0417 30.6392 24.0938L28.3768 26.3562C28.1165 26.6166 28.1165 27.0387 28.3768 27.299L29.3196 28.2418C29.58 28.5022 30.0021 28.5022 30.2624 28.2418L32.5248 25.9794C32.5769 25.9274 32.6613 25.9274 32.7134 25.9794L34.976 28.242C35.2363 28.5024 35.6585 28.5024 35.9188 28.242L36.8616 27.2992C37.122 27.0389 37.122 26.6168 36.8616 26.3564L34.599 24.0938C34.547 24.0417 34.547 23.9573 34.599 23.9053L36.8621 21.6422Z" fill="#F5F5F5"/>
</g>
<defs>
<filter id="filter0_d_538_626" x="12" y="14.6719" width="27.0574" height="20.6553" filterUnits="userSpaceOnUse" color-interpolation-filters="sRGB">
<feFlood flood-opacity="0" result="BackgroundImageFix"/>
<feColorMatrix in="SourceAlpha" type="matrix" values="0 0 0 0 0 0 0 0 0 0 0 0 0 0 0 0 0 0 127 0" result="hardAlpha"/>
<feOffset dx="1" dy="1"/>
<feGaussianBlur stdDeviation="0.5"/>
<feComposite in2="hardAlpha" operator="out"/>
<feColorMatrix type="matrix" values="0 0 0 0 0.0392157 0 0 0 0 0.0392157 0 0 0 0 0.0392157 0 0 0 0.04 0"/>
<feBlend mode="normal" in2="BackgroundImageFix" result="effect1_dropShadow_538_626"/>
<feBlend mode="normal" in="SourceGraphic" in2="effect1_dropShadow_538_626" result="shape"/>
</filter>
</defs>
</svg>
